<svg width="43" height="46" viewBox="0 0 43 46" fill="none" xmlns="http://www.w3.org/2000/svg">
<path fill-rule="evenodd" clip-rule="evenodd" d="M30.2169 12.3829L21.4996 18.0286L12.8664 12.4375V15.2365L13.3842 15.5722C16.5076 17.5966 19.6493 19.6328 21.5001 20.8297L30.2169 15.1845V12.3829ZM42.9997 6.90333L42.9995 4.10259L36.3836 8.38697L36.3838 11.1886L38.1639 10.0357L38.1636 39.2823L34.3817 36.833C34.3817 26.0661 34.3786 15.2995 34.3819 4.5329L37.0546 2.80189V0L29.5476 4.86196V7.66356L32.2203 5.93284V16.4791L29.6841 18.1215L32.219 19.7634L32.2196 35.4325L29.7784 33.8516V36.6529C35.474 40.3451 37.7013 41.787 40.1124 43.348L42.9997 45.2174L43 42.4144L40.3258 40.6828V8.63549L43 6.90333H42.9997ZM23.5153 14.1282L25.6788 12.7272L6.02795 0.00028792L6.02769 2.80189L8.70062 4.5329C8.69729 15.2814 8.70036 26.0302 8.70036 36.7786L4.83584 39.2814L4.83533 10.0372L6.69746 11.2429V8.44134L0 4.10374V6.90506L2.67268 8.63607C2.66934 19.3184 2.67242 30.001 2.67242 40.6833L0 42.4141V45.216L13.2521 36.6334L13.2523 33.8318L10.864 35.3787L10.8635 5.93399L23.5156 14.128L23.5153 14.1282Z" fill="white"/>
</svg>
