<svg width="140" height="33" viewBox="0 0 140 33" fill="none" xmlns="http://www.w3.org/2000/svg">
<path d="M72.6523 27.1039L73.806 25.4062H74.6117V28.1071H74.0793V25.8693L72.9257 27.5668H72.3933L71.2397 25.8693V28.1071H70.7073V25.4062H71.4988L72.6523 27.1039ZM77.2822 27.1039L78.4358 25.4062H79.2416V28.1071H78.7091V25.8693L77.5555 27.5668H77.0231L75.8695 25.8693V28.1071H75.3371V25.4062H76.1287L77.2822 27.1039ZM82.4785 28.1071L81.433 27.0358L80.3874 28.1071H79.6968L81.0878 26.6814L79.8435 25.4062H80.5418L81.4369 26.3239L82.3319 25.4062H83.0225L81.7821 26.6776L83.1768 28.1071H82.4785ZM86.1438 28.1071L85.0983 27.0358L84.0526 28.1071H83.362L84.753 26.6814L83.5087 25.4062H84.207L85.102 26.3239L85.9971 25.4062H86.6877L85.4474 26.6776L86.8421 28.1071H86.1438Z" fill="white"/>
<path d="M53.1498 28.107V25.4064H55.9815V25.8693H53.6821V26.4712H55.1482V26.9342H53.6821V27.644H56.0857V28.107H53.1498ZM58.6013 26.9458H57.9685C57.0633 26.9458 56.6105 26.695 56.6105 26.1935C56.6105 25.9208 56.7397 25.7111 56.9982 25.5645C57.2567 25.4179 57.6509 25.3447 58.1807 25.3447C58.4509 25.3447 58.7119 25.3678 58.9639 25.4141C59.216 25.4604 59.3999 25.5067 59.5157 25.5531L59.6893 25.6186L59.4424 26.0005C59.4013 25.9852 59.3427 25.9671 59.2668 25.9465C59.191 25.926 59.038 25.8977 58.8078 25.8616C58.5775 25.8256 58.3493 25.8077 58.1229 25.8077C57.8683 25.8077 57.6657 25.8244 57.5152 25.8578C57.3647 25.8912 57.2645 25.9324 57.2142 25.9812C57.1642 26.0301 57.139 26.0919 57.139 26.1665C57.139 26.2719 57.2021 26.351 57.3281 26.4037C57.4541 26.4564 57.6675 26.4827 57.9685 26.4827H58.6013C59.0359 26.4827 59.3479 26.5503 59.5369 26.6853C59.726 26.8203 59.8205 27.0113 59.8205 27.2582C59.8205 27.518 59.686 27.7347 59.4173 27.9083C59.1485 28.082 58.7453 28.1687 58.2078 28.1687C57.912 28.1687 57.624 28.1411 57.3435 28.0858C57.0633 28.0305 56.8561 27.9758 56.7224 27.9219L56.5218 27.837L56.7725 27.4241C56.8234 27.4422 56.8915 27.4672 56.977 27.498C57.0633 27.5289 57.2309 27.5713 57.4818 27.6247C57.7319 27.6788 57.9744 27.7058 58.2078 27.7058C58.5858 27.7058 58.8605 27.664 59.0315 27.5805C59.2026 27.4968 59.2881 27.3933 59.2881 27.2699C59.2881 27.1592 59.2385 27.0776 59.1396 27.0249C59.0405 26.9721 58.8611 26.9458 58.6013 26.9458ZM61.5875 28.107V25.8693H60.2952V25.4064H63.4124V25.8693H62.12V28.107H61.5875ZM63.9835 28.107V25.4064H65.7698C66.0604 25.4064 66.3119 25.4417 66.5241 25.5124C66.7363 25.5832 66.9022 25.6822 67.0217 25.8096C67.1414 25.9369 67.2282 26.0783 67.2822 26.2339C67.3361 26.3896 67.3632 26.5638 67.3632 26.7567C67.3632 26.9496 67.3361 27.1245 67.2822 27.2814C67.2282 27.4382 67.1414 27.5805 67.0217 27.7077C66.9022 27.835 66.7369 27.9335 66.5259 28.0029C66.3151 28.0724 66.063 28.107 65.7698 28.107H63.9835ZM64.5159 25.8693V27.644H65.7698C66.1633 27.644 66.4385 27.5662 66.5954 27.4107C66.7523 27.2551 66.8308 27.0371 66.8308 26.7567C66.8308 26.4789 66.7523 26.2616 66.5954 26.1047C66.4385 25.9478 66.1633 25.8693 65.7698 25.8693H64.5159Z" fill="white"/>
<path d="M95.8992 25.4064L97.7756 27.6101H97.8604V25.4064H98.3929V28.1072H97.5248L95.615 25.8695H95.5184V28.1072H94.9861V25.4064H95.8992ZM103.248 25.7421C103.566 26.007 103.725 26.3453 103.725 26.7569C103.725 27.1684 103.566 27.5066 103.248 27.7715C102.931 28.0364 102.484 28.1688 101.908 28.1688C101.332 28.1688 100.885 28.0364 100.567 27.7715C100.249 27.5066 100.091 27.1684 100.091 26.7569C100.091 26.3453 100.249 26.007 100.567 25.7421C100.885 25.4771 101.332 25.3447 101.908 25.3447C102.484 25.3447 102.931 25.4771 103.248 25.7421ZM100.963 26.0758C100.736 26.2547 100.623 26.4816 100.623 26.7569C100.623 27.032 100.736 27.2591 100.963 27.4378C101.189 27.6165 101.504 27.7059 101.908 27.7059C102.312 27.7059 102.627 27.6165 102.853 27.4378C103.079 27.2591 103.193 27.032 103.193 26.7569C103.193 26.4816 103.079 26.2547 102.853 26.0758C102.627 25.8971 102.312 25.8077 101.908 25.8077C101.504 25.8077 101.189 25.8971 100.963 26.0758ZM107.255 27.1581H105.955V28.1072H105.423V25.4064H107.645C108.008 25.4064 108.278 25.4861 108.457 25.6457C108.636 25.8051 108.725 26.0174 108.725 26.2823C108.725 26.5137 108.657 26.706 108.519 26.8591C108.381 27.0121 108.172 27.1065 107.892 27.1426L108.737 28.1072H108.081L107.255 27.1581ZM107.645 26.695C108.013 26.695 108.197 26.5575 108.197 26.2823C108.197 26.007 108.013 25.8695 107.645 25.8695H105.955V26.695H107.645ZM110.948 28.1072H110.415V25.4064H110.948V28.1072ZM112.723 28.1072V25.4064H113.255V27.6442H115.35V28.1072H112.723ZM118.877 26.9459H118.244C117.338 26.9459 116.886 26.695 116.886 26.1935C116.886 25.9208 117.015 25.7112 117.273 25.5646C117.532 25.418 117.926 25.3447 118.456 25.3447C118.726 25.3447 118.987 25.3679 119.239 25.4141C119.491 25.4604 119.675 25.5068 119.791 25.5531L119.965 25.6187L119.718 26.0005C119.676 25.9852 119.618 25.9671 119.542 25.9466C119.466 25.926 119.313 25.8977 119.083 25.8617C118.853 25.8257 118.624 25.8077 118.398 25.8077C118.143 25.8077 117.941 25.8244 117.79 25.8578C117.64 25.8914 117.54 25.9325 117.49 25.9813C117.439 26.0302 117.414 26.0919 117.414 26.1665C117.414 26.272 117.477 26.3511 117.603 26.4038C117.729 26.4566 117.943 26.4829 118.244 26.4829H118.877C119.311 26.4829 119.623 26.5504 119.812 26.6854C120.001 26.8204 120.096 27.0115 120.096 27.2584C120.096 27.5182 119.961 27.7348 119.693 27.9085C119.424 28.0821 119.021 28.1688 118.483 28.1688C118.187 28.1688 117.899 28.1413 117.619 28.086C117.338 28.0306 117.131 27.976 116.998 27.922L116.797 27.8371L117.048 27.4243C117.099 27.4422 117.167 27.4674 117.252 27.4982C117.338 27.529 117.506 27.5715 117.757 27.6249C118.007 27.6788 118.25 27.7059 118.483 27.7059C118.861 27.7059 119.136 27.6642 119.307 27.5806C119.478 27.497 119.563 27.3934 119.563 27.27C119.563 27.1593 119.514 27.0777 119.415 27.025C119.316 26.9722 119.136 26.9459 118.877 26.9459ZM122.307 28.1072H121.774V25.4064H122.307V26.8906L124.236 25.4064H125.03L123.641 26.4751L125.277 28.1072H124.541L123.225 26.7948L122.307 27.5014V28.1072Z" fill="white"/>
<path d="M43.8527 12.2758L50.2637 19.8257H50.3859V13.8381H49.6567L48.6797 12.146C50.4412 12.146 52.2016 12.146 53.9631 12.146L52.9861 13.8381H52.2508V19.8255H52.9861L53.9631 21.5176C52.3883 21.5176 50.8139 21.5178 49.2391 21.5178L42.7182 13.8383H42.4109V19.8257H43.14L44.117 21.5178C42.3559 21.5178 40.5948 21.5178 38.8337 21.5178L39.8107 19.8257H40.5458V13.8383H39.8107L38.8337 12.1462C40.4702 12.1462 42.1064 12.1462 43.7428 12.1462L43.8527 12.2758ZM134.328 12.146C136.089 12.146 137.85 12.146 139.611 12.146L138.634 13.8381H137.893V19.8255H138.634L139.611 21.5176C138.034 21.5176 136.458 21.5178 134.881 21.5178L128.36 13.8383H128.053V19.8257H128.788L129.765 21.5178C128.004 21.5178 126.243 21.5178 124.482 21.5178L125.459 19.8257H126.188V13.8383H125.459L124.482 12.1462C126.116 12.1462 127.75 12.1462 129.385 12.1462L129.495 12.2758L135.906 19.8257H136.028V13.8381H135.305L134.328 12.146ZM122.837 21.5178C121.88 21.5178 120.924 21.5178 119.968 21.5178C119.57 20.7602 119.172 20.0028 118.774 19.2454H112.403C112.004 20.0028 111.607 20.7601 111.209 21.5178C110.247 21.5178 109.285 21.5178 108.323 21.5178L109.3 19.8257H110.029L113.177 13.8383H112.429L111.452 12.1462C113.338 12.1462 115.224 12.1462 117.11 12.1462L121.147 19.8257H121.86L122.837 21.5178ZM101.411 21.5178C103.172 21.5178 104.933 21.5178 106.694 21.5178L105.717 19.8257H104.988V13.8383H105.717L106.694 12.1462C105.126 12.1462 103.557 12.1462 101.988 12.1462L98.0667 17.9171L94.1436 12.1462C92.5762 12.1462 91.0087 12.1462 89.4413 12.1462L90.4183 13.8383H91.1474V19.8257H90.4183L89.4413 21.5178C91.2023 21.5178 92.9635 21.5178 94.7245 21.5178L93.7475 19.8257H93.0125V13.8383H93.1475L97.123 19.6656L98.988 19.6525L102.955 13.8383H103.111V19.8257H102.388L101.411 21.5178ZM85.4159 21.5178C83.8626 21.5178 82.3095 21.5178 80.7562 21.5178L78.8153 15.6626L76.8836 21.5178C75.334 21.5178 73.7843 21.5178 72.2347 21.5178L73.2117 19.8257H73.9408L71.8281 13.8381H71.0991L70.1221 12.146C71.8835 12.146 73.644 12.146 75.4054 12.146L74.4284 13.8381H73.7728L75.7091 19.3253L78.0773 12.1462H79.5769L81.9488 19.3086L83.8794 13.8381H83.2767L82.2997 12.146C84.0611 12.146 85.8216 12.146 87.583 12.146L86.606 13.8381H85.8122L83.6993 19.8257H84.4389L85.4159 21.5178ZM66.5844 18.1195V19.8257H60.0661V17.4929H63.6205V15.8008H60.0661V13.8383H66.2263V15.5444L67.9184 14.5674C67.9184 13.7602 67.9184 12.9533 67.9184 12.1462C64.1066 12.1462 60.2946 12.1462 56.4827 12.1462L57.4597 13.8383H58.1888V19.8257H57.4597L56.4827 21.5178C60.4138 21.5178 64.3452 21.5178 68.2765 21.5178C68.2765 20.7106 68.2765 19.9036 68.2765 19.0966L66.5844 18.1195ZM113.292 17.5533H117.884C117.233 16.3151 116.582 15.0766 115.931 13.8383H115.245L113.292 17.5533Z" fill="white"/>
<path d="M60.334 8.25759H57.2988V4.65646H60.2876C60.6958 4.65646 60.9992 4.73978 61.1981 4.90601C61.397 5.07235 61.4967 5.29623 61.4967 5.57738C61.4967 5.66993 61.4821 5.75829 61.4529 5.84229C61.4237 5.92628 61.3877 5.99326 61.3448 6.04294C61.3019 6.09271 61.2591 6.13646 61.2162 6.17408C61.1733 6.2118 61.1365 6.23766 61.1056 6.25137L61.0644 6.27703C61.0816 6.28384 61.1048 6.29336 61.1339 6.30532C61.163 6.31728 61.2144 6.34732 61.2882 6.39524C61.3619 6.44337 61.4262 6.49819 61.4812 6.55993C61.536 6.62175 61.5866 6.7075 61.6329 6.81716C61.6792 6.92691 61.7024 7.04697 61.7024 7.17734C61.7024 7.50991 61.5883 7.77317 61.3603 7.96691C61.1322 8.16076 60.7901 8.25759 60.334 8.25759ZM60.9977 7.14642C60.9977 7.00235 60.9453 6.88404 60.8408 6.79149C60.7361 6.69885 60.5672 6.65247 60.334 6.65247H58.0087V7.64027H60.334C60.7764 7.64027 60.9977 7.47569 60.9977 7.14642ZM58.0087 6.03526H60.2774C60.4454 6.03526 60.5722 6.00094 60.658 5.93231C60.7437 5.86377 60.7866 5.77113 60.7866 5.65447C60.7866 5.53801 60.7437 5.44536 60.658 5.37673C60.5722 5.30819 60.4454 5.27387 60.2774 5.27387H58.0087V6.03526ZM64.6655 7.66088L64.3525 8.25759H63.58L65.4662 4.65646H66.6425L68.5391 8.25759H67.7667L67.452 7.66088H64.6655ZM64.9888 7.04347H67.1263L66.1933 5.27387H65.9155L64.9888 7.04347ZM72.9881 6.99214H71.2554V8.25759H70.5455V4.65646H73.5086C73.9921 4.65646 74.353 4.76282 74.5915 4.97552C74.8297 5.18813 74.949 5.47102 74.949 5.8244C74.949 6.13296 74.8573 6.38931 74.6737 6.59347C74.4903 6.79742 74.2116 6.92341 73.8379 6.97144L74.9643 8.25759H74.0898L72.9881 6.99214ZM73.5086 6.37473C73.999 6.37473 74.2442 6.19129 74.2442 5.8244C74.2442 5.45732 73.999 5.27387 73.5086 5.27387H71.2554V6.37473H73.5086ZM80.2374 8.25759H77.2023V4.65646H80.191C80.5992 4.65646 80.9026 4.73978 81.1016 4.90601C81.3005 5.07235 81.4 5.29623 81.4 5.57738C81.4 5.66993 81.3854 5.75829 81.3563 5.84229C81.3271 5.92628 81.2911 5.99326 81.2483 6.04294C81.2054 6.09271 81.1625 6.13646 81.1196 6.17408C81.0768 6.2118 81.0398 6.23766 81.0089 6.25137L80.9678 6.27703C80.985 6.28384 81.0082 6.29336 81.0372 6.30532C81.0664 6.31728 81.1179 6.34732 81.1917 6.39524C81.2653 6.44337 81.3296 6.49819 81.3845 6.55993C81.4394 6.62175 81.49 6.7075 81.5362 6.81716C81.5826 6.92691 81.6058 7.04697 81.6058 7.17734C81.6058 7.50991 81.4918 7.77317 81.2637 7.96691C81.0356 8.16076 80.6935 8.25759 80.2374 8.25759ZM80.901 7.14642C80.901 7.00235 80.8487 6.88404 80.7441 6.79149C80.6394 6.69885 80.4705 6.65247 80.2374 6.65247H77.9121V7.64027H80.2374C80.6798 7.64027 80.901 7.47569 80.901 7.14642ZM77.9121 6.03526H80.1808C80.3488 6.03526 80.4757 6.00094 80.5614 5.93231C80.6472 5.86377 80.6901 5.77113 80.6901 5.65447C80.6901 5.53801 80.6472 5.44536 80.5614 5.37673C80.4757 5.30819 80.3488 5.27387 80.1808 5.27387H77.9121V6.03526ZM83.8436 8.25759V4.65646H87.6195V5.27387H84.5535V6.07638H86.5083V6.6936H84.5535V7.64027H87.7583V8.25759H83.8436ZM92.4133 6.99214H90.6804V8.25759H89.9706V4.65646H92.9337C93.4173 4.65646 93.7782 4.76282 94.0166 4.97552C94.2549 5.18813 94.3742 5.47102 94.3742 5.8244C94.3742 6.13296 94.2824 6.38931 94.0989 6.59347C93.9154 6.79742 93.6367 6.92341 93.263 6.97144L94.3894 8.25759H93.515L92.4133 6.99214ZM92.9337 6.37473C93.4241 6.37473 93.6694 6.19129 93.6694 5.8244C93.6694 5.45732 93.4241 5.27387 92.9337 5.27387H90.6804V6.37473H92.9337ZM99.1686 6.70905H98.3249C97.1178 6.70905 96.5143 6.37473 96.5143 5.70599C96.5143 5.34241 96.6864 5.06292 97.0312 4.86752C97.3759 4.67192 97.9014 4.57422 98.608 4.57422C98.968 4.57422 99.3161 4.60513 99.6522 4.66686C99.9883 4.7285 100.234 4.79033 100.388 4.85206L100.619 4.93955L100.29 5.44876C100.235 5.42815 100.157 5.40414 100.056 5.37673C99.9549 5.34931 99.7507 5.3115 99.4438 5.26357C99.1368 5.21554 98.8325 5.19153 98.5308 5.19153C98.1912 5.19153 97.9212 5.21379 97.7205 5.25842C97.5199 5.30304 97.3861 5.35787 97.3193 5.4231C97.2524 5.48823 97.219 5.57047 97.219 5.66993C97.219 5.8105 97.303 5.91607 97.471 5.98636C97.6391 6.05665 97.9238 6.09184 98.3249 6.09184H99.1686C99.7483 6.09184 100.164 6.18176 100.416 6.3619C100.668 6.54194 100.794 6.79655 100.794 7.12581C100.794 7.47219 100.615 7.76121 100.257 7.99258C99.8983 8.22414 99.3607 8.33983 98.6439 8.33983C98.2495 8.33983 97.8655 8.30308 97.4916 8.2293C97.1178 8.15551 96.8418 8.0827 96.6634 8.01066L96.3959 7.8975L96.7302 7.34707C96.798 7.37099 96.8888 7.40453 97.0029 7.44565C97.1178 7.48677 97.3415 7.54335 97.676 7.61451C98.0095 7.68655 98.3327 7.72252 98.6439 7.72252C99.1481 7.72252 99.5142 7.66681 99.7423 7.5554C99.9703 7.4439 100.084 7.30595 100.084 7.14127C100.084 6.9937 100.018 6.88491 99.8862 6.81463C99.7542 6.74425 99.515 6.70905 99.1686 6.70905ZM107.369 4.65646V8.25759H106.659V6.704H103.742V8.25759H103.032V4.65646H103.742V6.08668H106.659V4.65646H107.369ZM113.843 5.10414C114.267 5.45732 114.478 5.90839 114.478 6.45707C114.478 7.00585 114.267 7.45673 113.843 7.81001C113.42 8.16319 112.824 8.33983 112.055 8.33983C111.287 8.33983 110.691 8.16319 110.268 7.81001C109.844 7.45673 109.632 7.00585 109.632 6.45707C109.632 5.90839 109.844 5.45732 110.268 5.10414C110.691 4.75086 111.287 4.57422 112.055 4.57422C112.824 4.57422 113.42 4.75086 113.843 5.10414ZM110.795 5.54909C110.493 5.78746 110.342 6.09009 110.342 6.45707C110.342 6.82396 110.493 7.12669 110.795 7.36496C111.097 7.60343 111.517 7.72252 112.055 7.72252C112.594 7.72252 113.014 7.60343 113.316 7.36496C113.618 7.12669 113.769 6.82396 113.769 6.45707C113.769 6.09009 113.618 5.78746 113.316 5.54909C113.014 5.31081 112.594 5.19153 112.055 5.19153C111.517 5.19153 111.097 5.31081 110.795 5.54909ZM119.705 6.99214H117.452V8.25759H116.742V4.65646H119.705C120.189 4.65646 120.55 4.76282 120.788 4.97552C121.026 5.18813 121.145 5.47102 121.145 5.8244C121.145 6.17758 121.026 6.46048 120.788 6.67308C120.55 6.88579 120.189 6.99214 119.705 6.99214ZM119.705 6.37473C120.195 6.37473 120.441 6.19129 120.441 5.8244C120.441 5.45732 120.195 5.27387 119.705 5.27387H117.452V6.37473H119.705Z" fill="white"/>
<path fill-rule="evenodd" clip-rule="evenodd" d="M91.1367 26.238L90.2047 26.7761L91.1367 27.3142L92.0687 26.7761L91.1367 26.238Z" fill="white"/>
<path fill-rule="evenodd" clip-rule="evenodd" d="M22.9551 14.2174V14.8241L20.6226 13.4774L16.126 16.0735C13.8693 14.7732 11.614 13.4697 9.3587 12.1666V11.5601L9.73541 11.7777C11.4183 12.75 13.0868 13.7142 15.8849 15.3265L16.1263 15.4656C17.6258 14.5999 19.1256 13.7281 20.6166 12.8673C21.396 13.3173 22.1753 13.7672 22.9551 14.2174Z" fill="white"/>
<path fill-rule="evenodd" clip-rule="evenodd" d="M5.84572 4.94531L4.38556 4.10227V3.49438L5.84572 4.33743V4.94531Z" fill="white"/>
<path fill-rule="evenodd" clip-rule="evenodd" d="M5.84258 9.52862L5.84268 10.1365L4.97028 9.63284V9.02515L5.84258 9.52862Z" fill="white"/>
<path fill-rule="evenodd" clip-rule="evenodd" d="M1.46051 7.60645L0.000244141 6.7634L0.000341355 6.15552L1.46051 6.99876V7.60645Z" fill="white"/>
<path fill-rule="evenodd" clip-rule="evenodd" d="M10.6092 25.4355L10.6093 26.0434L0.00012207 32.1685V31.5609L10.6092 25.4355Z" fill="white"/>
<path fill-rule="evenodd" clip-rule="evenodd" d="M16.5852 11.1462L9.35571 6.97229V6.3645L17.1115 10.8423L16.5852 11.1462Z" fill="white"/>
<path fill-rule="evenodd" clip-rule="evenodd" d="M27.2801 9.63357L26.4695 10.1018L26.4694 9.49514L27.2801 9.02686V9.63357Z" fill="white"/>
<path fill-rule="evenodd" clip-rule="evenodd" d="M27.9255 3.49561L27.9254 4.10349L26.4653 4.94644V4.33875L27.9255 3.49561Z" fill="white"/>
<path fill-rule="evenodd" clip-rule="evenodd" d="M22.9521 6.97366L21.4939 7.81563V7.20775L22.952 6.36597L22.9521 6.97366Z" fill="white"/>
<path fill-rule="evenodd" clip-rule="evenodd" d="M32.2503 31.5614V32.1691C28.7213 30.1319 25.1917 28.0955 21.6637 26.0568V25.4502C25.191 27.49 28.721 29.5249 32.2503 31.5614Z" fill="white"/>
<path fill-rule="evenodd" clip-rule="evenodd" d="M32.2504 6.15674V6.76336L30.7931 7.60475V6.99813L32.2504 6.15674Z" fill="white"/>
<path fill-rule="evenodd" clip-rule="evenodd" d="M32.2502 2.66174L32.2504 5.59675L30.307 6.7188V26.9452L32.2504 28.0671L32.2502 31.0024C28.7212 28.9652 25.1916 26.9289 21.6636 24.8901L21.6634 21.9548L23.4392 22.98L23.439 13.9369L21.1103 12.5922L23.4381 11.2483V5.52636L21.4938 6.6489V3.71321L27.9252 0L27.9254 2.93569L25.981 4.05823L25.9809 24.4476L27.764 25.477L27.7641 8.18732L26.4693 8.935L26.4689 5.99951L32.2502 2.66174ZM20.1351 9.09317L17.5926 10.5612L8.87152 5.52617L8.87172 22.9443L10.6093 21.9411L10.6091 24.8768L0 31.0019L0.000194429 28.067L1.94439 26.9446L1.94449 6.71929L0.000194429 5.59675L0 2.66115L5.8426 6.03441V8.9699L4.48607 8.18674L4.48636 25.4763L6.32965 24.4121L6.32975 4.05813L4.38545 2.93559L4.38565 9.72147e-05L20.1351 9.09317ZM16.1251 11.9716L22.951 8.03061L22.9512 10.9662L16.1259 14.9068C13.8691 13.6064 11.6139 12.3029 9.35857 10.9998V8.06493L16.1251 11.9716Z" fill="white"/>
</svg>
