<svg width="68" height="64" fill="none" xmlns="http://www.w3.org/2000/svg"><path opacity=".5" fill-rule="evenodd" clip-rule="evenodd" d="M47.785 17.526l-13.786 7.991-13.652-7.913v3.962l.819.475c4.94 2.865 9.907 5.747 12.834 7.441l13.785-7.99v-3.966zM68 9.771V5.807L57.536 11.87v3.965l2.815-1.632V55.6l-5.981-3.466c0-15.24-.005-30.478 0-45.717l4.227-2.45V0L46.727 6.882v3.965l4.226-2.45v14.927l-4.01 2.325 4.008 2.324V50.15l-3.86-2.238v3.965c9.008 5.226 12.53 7.267 16.343 9.476L68 64v-3.967l-4.229-2.451v-45.36L68 9.771zM37.187 19.997l3.421-1.983L9.533 0v3.966l4.226 2.45c-.005 15.213 0 30.427 0 45.64l-6.112 3.542V14.206l2.944 1.707v-3.965L0 5.808v3.965l4.227 2.45c-.006 15.12 0 30.24 0 45.36L0 60.033v3.965L20.957 51.85v-3.965l-3.777 2.19V8.398l20.008 11.598h-.001z" fill="#fff"/></svg>