<svg width="614" height="614" viewBox="0 0 614 614" fill="none" xmlns="http://www.w3.org/2000/svg">
<path opacity="0.05" d="M171.977 423.996L135.894 447.629L125.445 431.675L136.15 415.542L121.264 425.291L111.601 410.539L147.684 386.905L157.682 402.169L145.363 420.397L162.338 409.28L171.977 423.996ZM147.231 384.11L107.211 400.201L95.3744 370.761L104.492 367.096L109.842 380.403L116.151 377.866L111.395 366.037L120.513 362.371L125.269 374.2L131.627 371.644L126.276 358.337L135.394 354.671L147.231 384.11ZM86.9715 318.836L106.371 313.732L86.4074 312.158L84.93 294.682L128.678 300.136L130.179 317.894L112.288 323.182L130.812 325.384L132.313 343.143L90.097 355.817L88.6199 338.341L108.037 333.439L88.0561 331.672L86.9715 318.836ZM134.716 266.481L115.758 266.262L133.489 271.036L128.933 287.955L87.2831 276.74L93.017 255.445L111.176 254.439L95.9752 244.459L101.721 223.121L143.371 234.337L138.806 251.288L121.076 246.515L137.589 255.811L134.716 266.481ZM139.742 205.401L141.37 202.765L128.071 196.38L139.742 205.401ZM145.442 232.055L113.073 202.382L126.757 180.23L167.78 195.894L158.526 210.875L150.004 206.881L147.259 211.324L154.673 217.111L145.442 232.055ZM169.761 193.904L139.51 163.157L153.103 149.783L171.023 157.115L158.544 144.43L171.115 132.062L201.366 162.809L188.359 175.606L168.069 167.102L182.3 181.567L169.761 193.904ZM214.651 118.188L217.192 123.744L218.947 122.942C219.776 122.562 220.276 122.081 220.431 121.503C220.594 120.923 220.439 120.137 219.983 119.139C219.497 118.075 219.001 117.417 218.495 117.161C217.988 116.905 217.292 116.98 216.406 117.385L214.651 118.188ZM224.391 139.493L226.146 138.691C227.031 138.286 227.543 137.809 227.682 137.259C227.82 136.71 227.649 135.911 227.164 134.848L226.428 133.238C225.957 132.207 225.468 131.564 224.955 131.293C224.441 131.021 223.741 131.087 222.856 131.493L221.101 132.295L224.391 139.493ZM212.564 155.764L194.632 116.535L220.438 104.738C222.298 103.888 223.973 103.336 225.447 103.09C226.93 102.841 228.251 102.899 229.411 103.264C230.575 103.638 231.62 104.328 232.543 105.347C233.475 106.361 234.316 107.691 235.067 109.333C236.256 111.934 236.661 114.163 236.272 116.015C235.89 117.864 234.632 119.626 232.514 121.296C235.083 120.783 237.274 121.125 239.094 122.317C240.915 123.51 242.586 125.783 244.118 129.133C245.811 132.837 246.222 135.803 245.36 138.027C244.498 140.251 242.163 142.234 238.371 143.967L212.564 155.764ZM264.976 115.959L268.001 115.29L263.311 101.302L264.976 115.959ZM249.833 138.623L248.555 94.7292L273.978 89.105L291.334 129.442L274.14 133.245L271.066 124.35L265.966 125.478L266.983 134.829L249.833 138.623ZM314.605 96.8741L312.232 96.8413L312.112 105.446L314.405 105.478C315.282 105.49 315.914 105.268 316.3 104.813C316.697 104.359 316.893 103.556 316.909 102.431L316.942 100.032C316.958 98.8992 316.783 98.0909 316.418 97.6074C316.053 97.1241 315.455 96.886 314.605 96.8741ZM311.942 117.715L311.768 130.242L294.161 129.998L294.76 86.8681L323.539 87.268C325.558 87.2961 327.272 87.4965 328.675 87.8703C330.086 88.2443 331.238 88.809 332.122 89.5653C333.015 90.3214 333.657 91.2955 334.048 92.4874C334.439 93.6699 334.631 95.0891 334.608 96.7184L334.492 105.111C334.438 109.006 333.559 111.712 331.874 113.202C331.219 113.813 330.344 114.288 329.268 114.645C332.531 116.904 334.122 122.212 334.015 130.551L316.406 130.307C316.505 121.95 315.014 117.75 311.942 117.715ZM362.085 104.229L360.546 110.141L362.414 110.626C363.297 110.856 363.989 110.799 364.473 110.449C364.966 110.102 365.342 109.394 365.619 108.332C365.913 107.201 365.944 106.377 365.713 105.859C365.482 105.341 364.896 104.96 363.953 104.714L362.085 104.229ZM356.185 126.9L358.053 127.385C358.995 127.631 359.693 127.584 360.148 127.245C360.602 126.906 360.974 126.179 361.268 125.048L361.714 123.334C362 122.237 362.027 121.431 361.8 120.896C361.573 120.361 360.989 119.971 360.046 119.726L358.178 119.24L356.185 126.9ZM336.74 132.048L347.604 90.3054L375.064 97.4523C377.043 97.967 378.691 98.5969 379.989 99.3371C381.297 100.08 382.285 100.959 382.953 101.975C383.62 102.999 383.995 104.195 384.067 105.567C384.149 106.943 383.962 108.504 383.507 110.252C382.787 113.019 381.694 115.004 380.223 116.194C378.759 117.387 376.671 117.96 373.974 117.917C376.29 119.142 377.773 120.79 378.431 122.864C379.09 124.938 378.952 127.756 378.024 131.321C376.998 135.262 375.445 137.821 373.372 139.002C371.299 140.182 368.236 140.245 364.201 139.195L336.74 132.048ZM377.429 144.075L397.982 106.153L425.878 121.272L421.196 129.911L408.586 123.077L405.346 129.055L416.555 135.13L411.872 143.77L400.663 137.695L397.398 143.719L410.008 150.554L405.325 159.193L377.429 144.075ZM444.222 147.756L442.395 146.242L436.905 152.869L438.671 154.332C439.345 154.891 439.977 155.114 440.563 155.003C441.157 154.897 441.814 154.395 442.531 153.529L444.062 151.682C444.785 150.809 445.156 150.07 445.175 149.465C445.194 148.859 444.877 148.298 444.222 147.756ZM429.076 162.317L421.083 171.963L407.523 160.729L435.044 127.515L457.206 145.879C458.761 147.166 459.971 148.398 460.828 149.569C461.693 150.746 462.236 151.908 462.45 153.052C462.671 154.201 462.56 155.362 462.117 156.535C461.679 157.701 460.939 158.928 459.9 160.182L454.544 166.645C452.059 169.644 449.677 171.201 447.43 171.304C446.537 171.369 445.558 171.191 444.495 170.794C445.62 174.599 443.529 179.731 438.215 186.159L424.655 174.923C429.974 168.477 431.447 164.27 429.076 162.317ZM446.283 197.752C444.1 194.775 442.979 192.136 442.949 189.827C442.911 187.523 444.164 185.477 446.708 183.691L452.794 179.205L463.616 193.885L461.256 195.624C459.653 196.806 459.291 197.986 460.163 199.169C460.625 199.796 461.161 200.105 461.775 200.103C462.39 200.101 463.17 199.757 464.111 199.063C464.631 198.68 465.045 198.331 465.345 198.022C465.645 197.713 465.86 197.378 465.984 197.023C466.114 196.663 466.157 196.258 466.1 195.793C466.056 195.331 465.928 194.754 465.728 194.065L462.08 181.401C461.233 178.461 461 176.236 461.386 174.73C461.804 173.179 462.864 171.782 464.546 170.542L468.159 167.879C470.226 166.356 472.344 165.96 474.519 166.688C476.694 167.416 478.878 169.261 481.069 172.232L491.958 187.005C494.154 189.985 495.275 192.623 495.321 194.91C495.373 197.203 494.364 199.102 492.297 200.625L488.32 203.557L477.573 188.976L477.979 188.676C479.504 187.552 479.809 186.37 478.89 185.123C478.512 184.61 478.046 184.305 477.513 184.224C476.975 184.137 476.461 184.274 475.969 184.637C475.719 184.821 475.515 185.004 475.386 185.187C475.244 185.369 475.163 185.616 475.123 185.921C475.095 186.227 475.111 186.622 475.18 187.088C475.236 187.553 475.38 188.15 475.585 188.89L479.646 203.77C479.883 204.717 479.997 205.589 479.991 206.386C479.971 207.181 479.813 207.936 479.499 208.673C479.18 209.404 478.69 210.128 478.02 210.831C477.348 211.546 476.491 212.277 475.436 213.054L471.709 215.801C468.736 217.916 466.139 218.675 463.935 218.088C461.732 217.502 459.481 215.641 457.168 212.518L446.283 197.752ZM464.698 224.366L504.928 208.807L511.239 225.123L497.622 230.389L498.95 233.824L512.567 228.558L518.877 244.875L478.647 260.433L472.337 244.117L489.777 237.372L488.448 233.937L471.009 240.682L464.698 224.366ZM512.157 276.917L494.933 279.165C493.843 279.298 493.085 279.576 492.655 279.98C492.227 280.392 492.063 280.985 492.166 281.775C492.268 282.565 492.58 283.105 493.1 283.395C493.619 283.684 494.424 283.767 495.514 283.634L512.738 281.377C514.809 281.107 515.748 280.227 515.553 278.725C515.45 277.935 515.13 277.396 514.594 277.117C514.058 276.839 513.246 276.775 512.157 276.917ZM481.203 273.684C480.949 271.726 480.908 270.044 481.101 268.643C481.293 267.235 481.755 266.05 482.471 265.1C483.186 264.15 484.169 263.397 485.419 262.851C486.668 262.295 488.224 261.906 490.086 261.663L513.474 258.622C516.679 258.205 519.108 258.764 520.76 260.272C522.42 261.779 523.493 264.399 523.977 268.121L526.356 286.417C526.617 288.419 526.671 290.144 526.52 291.592C526.378 293.039 525.992 294.259 525.371 295.25C524.75 296.242 523.888 297.024 522.774 297.588C521.669 298.16 520.309 298.542 518.692 298.744L495.304 301.785C491.511 302.279 488.744 301.808 486.986 300.367C486.102 299.679 485.376 298.63 484.818 297.221C484.26 295.811 483.855 294.069 483.583 291.98L481.203 273.684ZM516.132 330.025L516.435 327.672L504.423 326.121L504.13 328.396C504.018 329.265 504.166 329.918 504.583 330.356C504.989 330.801 505.756 331.087 506.88 331.232L512.728 331.987C513.851 332.132 514.674 332.051 515.196 331.743C515.718 331.435 516.023 330.867 516.132 330.025ZM485.56 305.932L528.339 311.453L524.655 339.998C524.397 342 524.001 343.681 523.47 345.031C522.937 346.391 522.245 347.471 521.392 348.263C520.54 349.063 519.498 349.59 518.27 349.842C517.05 350.095 515.618 350.124 514.002 349.915L502.21 348.394C498.338 347.894 495.759 346.713 494.461 344.868C493.157 343.075 492.773 340.107 493.309 335.953L494.739 324.872L483.306 323.397L485.56 305.932ZM493.286 389.943L498.299 378.24L488.492 374.04L483.479 385.742L493.286 389.943ZM459.438 400.938L492.304 428.872L479.954 443.403L461.452 437.694L475.011 449.218L463.589 462.655L430.723 434.721L442.541 420.818L463.506 427.483L448.045 414.342L459.438 400.938ZM432.59 472.026L422.277 458.048C421.633 457.159 421.022 456.63 420.461 456.45C419.892 456.275 419.295 456.419 418.653 456.891C418.011 457.364 417.69 457.899 417.688 458.494C417.687 459.088 418.005 459.833 418.649 460.722L428.969 474.694C430.209 476.376 431.435 476.771 432.654 475.872C433.294 475.4 433.611 474.859 433.595 474.255C433.579 473.651 433.241 472.91 432.59 472.026ZM420.42 443.382C422.009 442.21 423.461 441.36 424.779 440.85C426.104 440.336 427.365 440.165 428.542 440.331C429.72 440.497 430.855 440.992 431.939 441.82C433.03 442.644 434.124 443.816 435.238 445.327L449.231 464.313C451.149 466.915 451.837 469.31 451.318 471.486C450.804 473.668 449.033 475.876 446.011 478.103L431.159 489.05C429.534 490.247 428.052 491.131 426.712 491.701C425.377 492.277 424.123 492.531 422.955 492.468C421.787 492.405 420.685 492.029 419.651 491.329C418.616 490.64 417.622 489.635 416.662 488.318L402.669 469.333C400.4 466.253 399.471 463.605 399.879 461.369C400.053 460.262 400.619 459.119 401.581 457.948C402.543 456.777 403.871 455.578 405.567 454.328L420.42 443.382ZM387.787 501.329L390 500.473L386.895 492.447L384.756 493.274C383.939 493.59 383.436 494.032 383.247 494.598C383.05 495.168 383.167 495.987 383.572 497.036L384.438 499.273C384.847 500.33 385.311 501.014 385.83 501.326C386.35 501.638 386.994 501.636 387.787 501.329ZM382.469 481.003L377.949 469.318L394.373 462.966L409.933 503.195L383.089 513.578C381.206 514.306 379.54 514.761 378.1 514.938C376.651 515.119 375.372 515.025 374.269 514.655C373.158 514.286 372.199 513.623 371.391 512.663C370.587 511.712 369.878 510.468 369.29 508.948L366.263 501.12C364.857 497.487 364.661 494.649 365.668 492.637C366.047 491.826 366.68 491.058 367.545 490.325C363.675 489.448 360.215 485.119 357.199 477.344L373.623 470.992C376.654 478.78 379.606 482.119 382.469 481.003ZM354.462 477.802L363.778 519.917L346.662 523.704L337.346 481.588L354.462 477.802ZM334.835 482.574L337.889 525.6L320.536 526.831L318.178 493.609L307.475 494.369L306.779 484.566L334.835 482.574ZM293.005 483.657C296.666 484.139 299.346 485.154 301.036 486.729C302.726 488.296 303.337 490.614 302.869 493.688L301.901 501.186L283.813 498.851L284.188 495.945C284.443 493.969 283.842 492.891 282.384 492.703C281.611 492.604 281.018 492.777 280.594 493.222C280.171 493.668 279.88 494.469 279.73 495.629C279.648 496.269 279.613 496.809 279.629 497.24C279.645 497.67 279.738 498.057 279.909 498.392C280.079 498.735 280.342 499.046 280.716 499.326C281.081 499.614 281.586 499.921 282.222 500.253L293.893 506.374C296.602 507.795 298.371 509.166 299.191 510.486C300.023 511.861 300.299 513.593 300.032 515.665L299.457 520.117C299.129 522.663 297.949 524.466 295.919 525.534C293.889 526.602 291.046 526.905 287.385 526.432L269.183 524.082C265.513 523.608 262.832 522.593 261.148 521.045C259.456 519.497 258.782 517.455 259.111 514.908L259.743 510.009L277.708 512.328L277.644 512.828C277.401 514.707 278.044 515.745 279.58 515.944C280.213 516.026 280.755 515.899 281.182 515.571C281.617 515.243 281.873 514.776 281.951 514.17C281.991 513.863 282 513.587 281.957 513.368C281.924 513.14 281.802 512.91 281.61 512.671C281.407 512.44 281.11 512.178 280.726 511.905C280.352 511.624 279.821 511.315 279.145 510.951L265.588 503.595C264.74 503.111 264.031 502.591 263.459 502.035C262.899 501.471 262.463 500.835 262.147 500.098C261.841 499.362 261.657 498.508 261.612 497.538C261.561 496.558 261.625 495.433 261.793 494.133L262.385 489.542C262.914 485.932 264.161 483.53 266.109 482.345C268.056 481.159 270.956 480.819 274.812 481.308L293.005 483.657ZM260.99 479.006L245.417 519.229L229.078 512.904L235.372 496.648L223.703 510.823L206.72 504.248L220.374 488.059L221.922 463.88L238.715 470.382L237.533 491.066L244.651 472.68L260.99 479.006ZM176.728 464.212L186.918 471.843L193.313 463.304L183.122 455.673L176.728 464.212Z" fill="white"/>
<path opacity="0.05" fill-rule="evenodd" clip-rule="evenodd" d="M341.057 271.269L306.999 290.996L273.269 271.46V281.24L275.292 282.413C287.495 289.487 299.769 296.601 307.001 300.784L341.057 281.058V271.269ZM390.999 252.122L390.998 242.335L365.15 257.306L365.151 267.095L372.105 263.067L372.104 365.261L357.328 356.703C357.328 319.081 357.316 281.46 357.329 243.839L367.772 237.79V228L338.442 244.989V254.778L348.884 248.731V285.582L338.975 291.321L348.879 297.058L348.881 351.809L339.344 346.285V356.074C361.596 368.975 370.298 374.013 379.718 379.468L390.999 386L391 376.206L380.552 370.155V258.174L391 252.122H390.999ZM314.874 277.367L323.326 272.472L246.551 228.001L246.55 237.79L256.993 243.839C256.98 281.397 256.992 318.955 256.992 356.513L241.894 365.258L241.892 263.072L249.167 267.285V257.496L223 242.339V252.128L233.442 258.176C233.429 295.503 233.441 332.83 233.441 370.157L223 376.205V385.995L274.776 356.006L274.777 346.216L265.446 351.621L265.444 248.735L314.875 277.366L314.874 277.367Z" fill="white"/>
</svg>
