<svg xmlns="http://www.w3.org/2000/svg" width="542.782" height="125.067" viewBox="0 0 14361.08 3309.07" shape-rendering="geometricPrecision" text-rendering="geometricPrecision" image-rendering="optimizeQuality" fill-rule="evenodd" clip-rule="evenodd"><defs><style>.fil3{fill:#898989}.fil0,.fil1{fill:#5b5b5b;fill-rule:nonzero}.fil1{fill:#2b2a29}</style></defs><g id="Слой_x0020_1"><g id="_2107719030160"><path class="fil0" d="M7473.38 2788.05l118.67-174.63h82.88v277.82h-54.77v-230.19l-118.66 174.62h-54.77l-118.66-174.62v230.19h-54.77v-277.82h81.42l118.66 174.63zm476.25 0l118.67-174.63h82.88v277.82h-54.77v-230.19l-118.67 174.62h-54.76l-118.67-174.62v230.19h-54.76v-277.82h81.42l118.66 174.63zm534.52 103.19l-107.55-110.2-107.55 110.2h-71.04l143.08-146.65-127.99-131.17h71.83l92.07 94.39 92.07-94.39h71.04l-127.6 130.78 143.47 147.04h-71.83zm377.03 0l-107.55-110.2-107.56 110.2h-71.04l143.08-146.65-127.99-131.17h71.83l92.07 94.39 92.07-94.39h71.04l-127.59 130.78 143.47 147.04h-71.83zM5467.25 2891.23v-277.8h291.29v47.62h-236.53v61.92h150.81v47.62h-150.81v73.02h247.24v47.62h-302zm560.77-119.45h-65.09c-93.12 0-139.69-25.79-139.69-77.38 0-28.05 13.29-49.62 39.88-64.7 26.59-15.08 67.14-22.61 121.64-22.61 27.79 0 54.64 2.37 80.56 7.14 25.93 4.76 44.85 9.52 56.76 14.29l17.86 6.74-25.4 39.29c-4.23-1.58-10.25-3.44-18.06-5.56-7.8-2.11-23.54-5.02-47.22-8.73-23.69-3.7-47.16-5.55-70.45-5.55-26.19 0-47.03 1.72-62.51 5.16-15.48 3.43-25.79 7.67-30.96 12.69-5.15 5.03-7.74 11.39-7.74 19.06 0 10.84 6.49 18.98 19.45 24.4 12.96 5.42 34.92 8.13 65.88 8.13h65.09c44.71 0 76.8 6.95 96.24 20.84 19.45 13.89 29.17 33.53 29.17 58.93 0 26.72-13.83 49.02-41.47 66.87-27.65 17.87-69.13 26.79-124.42 26.79-30.42 0-60.05-2.84-88.9-8.53-28.83-5.69-50.14-11.31-63.89-16.86l-20.64-8.73 25.79-42.47c5.24 1.86 12.24 4.43 21.04 7.6 8.87 3.18 26.12 7.54 51.92 13.03 25.73 5.56 50.67 8.34 74.68 8.34 38.89 0 67.14-4.3 84.73-12.89 17.6-8.61 26.4-19.25 26.4-31.95 0-11.38-5.1-19.78-15.28-25.2-10.19-5.43-28.64-8.14-55.37-8.14zm307.18 119.45v-230.18h-132.94v-47.62h320.66v47.62h-132.95v230.18h-54.77zm246.46 0v-277.8h183.75c29.89 0 55.76 3.64 77.59 10.91 21.83 7.28 38.89 17.46 51.19 30.57 12.31 13.09 21.24 27.64 26.79 43.65 5.55 16.01 8.33 33.93 8.33 53.77 0 19.85-2.78 37.84-8.33 53.98-5.55 16.13-14.48 30.76-26.79 43.85-12.3 13.09-29.3 23.22-51 30.36-21.69 7.15-47.62 10.71-77.78 10.71h-183.75zm54.77-230.18v182.56h128.98c40.48 0 68.79-8.01 84.93-24 16.14-16.01 24.21-38.43 24.21-67.28 0-28.57-8.07-50.93-24.21-67.07-16.14-16.13-44.45-24.21-84.93-24.21h-128.98zM9864.67 2613.43l193.01 226.69h8.73v-226.69h54.77v277.82h-89.29l-196.46-230.18h-9.93v230.18h-54.76v-277.82h93.93zm755.98 34.54c32.68 27.25 49.02 62.04 49.02 104.38 0 42.33-16.34 77.12-49.02 104.37-32.67 27.25-78.65 40.87-137.91 40.87-59.27 0-105.23-13.62-137.91-40.87-32.69-27.25-49.02-62.04-49.02-104.37 0-42.34 16.33-77.13 49.02-104.38 32.68-27.26 78.64-40.88 137.91-40.88 59.26 0 105.24 13.62 137.91 40.88zm-235.14 34.32c-23.29 18.4-34.94 41.74-34.94 70.06 0 28.3 11.65 51.66 34.94 70.04 23.28 18.39 55.69 27.58 97.23 27.58 41.53 0 73.96-9.19 97.23-27.58 23.29-18.38 34.93-41.74 34.93-70.04 0-28.32-11.64-51.66-34.93-70.06-23.27-18.38-55.7-27.58-97.23-27.58-41.54 0-73.95 9.2-97.23 27.58zm647.24 111.33h-133.68v97.63h-54.77v-277.82h228.6c37.31 0 65.15 8.2 83.55 24.62 18.38 16.4 27.58 38.23 27.58 65.48 0 23.81-7.08 43.59-21.24 59.34-14.15 15.73-35.65 25.45-64.48 29.16l86.9 99.22h-67.46l-85-97.63zm40.15-47.63c37.84 0 56.76-14.15 56.76-42.46 0-28.31-18.92-42.46-56.76-42.46h-173.83v84.92h173.83zm339.73 145.26h-54.76v-277.82h54.76v277.82zm182.58 0v-277.82h54.76v230.2h215.51v47.62h-270.27zm633.02-119.46h-65.09c-93.13 0-139.69-25.8-139.69-77.39 0-28.05 13.28-49.61 39.88-64.69 26.59-15.08 67.14-22.62 121.65-22.62 27.77 0 54.63 2.38 80.56 7.14s44.85 9.53 56.75 14.29l17.86 6.75-25.39 39.28c-4.25-1.58-10.26-3.44-18.07-5.55-7.8-2.12-23.55-5.03-47.23-8.73-23.68-3.7-47.16-5.56-70.44-5.56-26.2 0-47.03 1.72-62.51 5.16-15.48 3.45-25.8 7.68-30.95 12.7-5.16 5.03-7.74 11.38-7.74 19.05 0 10.85 6.48 18.99 19.44 24.41 12.97 5.43 34.93 8.14 65.88 8.14h65.09c44.72 0 76.79 6.94 96.25 20.83 19.45 13.89 29.17 33.54 29.17 58.94 0 26.72-13.83 49.01-41.48 66.87-27.64 17.86-69.12 26.78-124.42 26.78-30.43 0-60.06-2.83-88.9-8.52-28.84-5.7-50.13-11.31-63.89-16.87l-20.65-8.73 25.8-42.46c5.23 1.84 12.24 4.43 21.04 7.6 8.86 3.17 26.12 7.54 51.93 13.03 25.73 5.55 50.66 8.33 74.67 8.33 38.9 0 67.14-4.29 84.74-12.89 17.59-8.6 26.38-19.25 26.38-31.95 0-11.38-5.08-19.78-15.28-25.2-10.18-5.43-28.64-8.14-55.36-8.14zm352.83 119.46h-54.76v-277.82h54.76v152.68l198.44-152.68h81.76l-142.88 109.94 168.28 167.88h-75.8l-135.27-135-94.53 72.69v62.31z"/><path class="fil1" d="M4510.91 1262.75l659.46 776.62h12.57v-615.91h-75l-100.5-174.06h543.47l-100.5 174.06h-75.63v615.89h75.63l100.5 174.06c-161.99 0-323.94.02-485.93.02l-670.77-789.95h-31.62v615.89h75l100.5 174.06h-543.46l100.5-174.06h75.61v-615.89h-75.61l-100.5-174.06h504.97l11.31 13.33zm9306.71-13.35h543.46l-100.5 174.06h-76.24v615.89h76.24l100.5 174.06c-162.18 0-324.34.02-486.54.02l-670.77-789.95h-31.62v615.89h75.62l100.5 174.06h-543.47l100.5-174.06h75v-615.89h-75l-100.5-174.06h504.36l11.31 13.33 659.46 776.62h12.57v-615.91h-74.38l-100.5-174.06zm-1182.03 964.03h-295.1c-40.93-77.93-81.87-155.84-122.83-233.75h-655.37c-40.95 77.91-81.88 155.81-122.82 233.75h-296.82l100.5-174.06h74.99l323.79-615.89h-76.92l-100.5-174.06h582.01l415.29 789.95h73.28l100.5 174.06zm-2203.92 0h543.46l-100.5-174.06h-75v-615.89h75l100.5-174.06h-484.11l-403.38 593.63-403.56-593.63h-483.7l100.5 174.06h75v615.89h-75l-100.5 174.06h543.46l-100.5-174.06h-75.61v-615.89h13.89l408.94 599.43 191.84-1.35 408.1-598.08h16.02v615.89h-74.35l-100.5 174.06zm-1645.36 0h-479.32l-199.65-602.29-198.71 602.29h-478.21l100.5-174.06h75l-217.32-615.91h-74.99l-100.5-174.06h543.47l-100.5 174.06h-67.44l199.18 564.44 243.6-738.48h154.26l243.99 736.76 198.59-562.72h-62l-100.5-174.06h543.47l-100.5 174.06h-81.66l-217.34 615.91h76.08l100.5 174.06zM6849.2 1863.87v175.5h-670.5v-239.96h365.62v-174.06H6178.7v-201.87h633.67v175.5l174.06-100.5v-249.06H5810.09l100.5 174.06h75v615.89h-75l-100.5 174.06h1213.17v-249.06l-174.06-100.5zm4804.59-58.25h472.37c-66.96-127.36-133.97-254.76-200.94-382.14h-70.49l-200.94 382.14zM6206.26 849.42h-312.21V478.99h307.44c41.99 0 73.2 8.57 93.66 25.67 20.46 17.11 30.71 40.14 30.71 69.06 0 9.52-1.5 18.61-4.5 27.25s-6.71 15.53-11.12 20.64c-4.41 5.12-8.82 9.62-13.23 13.49-4.41 3.88-8.2 6.54-11.38 7.95l-4.23 2.64c1.77.7 4.15 1.68 7.14 2.91 3 1.23 8.29 4.32 15.88 9.25 7.58 4.95 14.19 10.59 19.85 16.94 5.64 6.36 10.84 15.18 15.6 26.46 4.77 11.29 7.15 23.64 7.15 37.05 0 34.21-11.73 61.29-35.19 81.22-23.46 19.94-58.65 29.9-105.57 29.9zm68.27-114.3c0-14.82-5.39-26.99-16.14-36.51-10.77-9.53-28.14-14.3-52.13-14.3h-239.19v101.61h239.19c45.51 0 68.27-16.93 68.27-50.8zm-307.46-114.3h233.37c17.28 0 30.33-3.53 39.15-10.59 8.82-7.05 13.23-16.58 13.23-28.58 0-11.98-4.41-21.51-13.23-28.57-8.82-7.05-21.87-10.58-39.15-10.58h-233.37v78.32zm684.75 167.22l-32.19 61.38h-79.47l194.03-370.43h121l195.09 370.43h-79.45l-32.37-61.38h-286.64zm33.26-63.51h219.87l-95.97-182.03h-28.58l-95.32 182.03zm822.85-5.28h-178.24v130.17h-73.02V478.99h304.8c49.74 0 86.86 10.94 111.39 32.82 24.51 21.87 36.78 50.97 36.78 87.32 0 31.74-9.44 58.11-28.32 79.11-18.87 20.98-47.54 33.94-85.98 38.88l115.87 132.3h-89.95l-113.33-130.17zm53.54-63.51c50.44 0 75.67-18.87 75.67-56.61 0-37.76-25.23-56.63-75.67-56.63h-231.78v113.24h231.78zm692.16 193.68h-312.21V478.99h307.44c41.98 0 73.2 8.57 93.66 25.67 20.46 17.11 30.7 40.14 30.7 69.06 0 9.52-1.5 18.61-4.5 27.25s-6.7 15.53-11.11 20.64c-4.41 5.12-8.82 9.62-13.23 13.49-4.41 3.88-8.21 6.54-11.39 7.95l-4.23 2.64c1.77.7 4.16 1.68 7.14 2.91 3 1.23 8.3 4.32 15.89 9.25 7.57 4.95 14.19 10.59 19.84 16.94 5.64 6.36 10.85 15.18 15.6 26.46 4.77 11.29 7.16 23.64 7.16 37.05 0 34.21-11.73 61.29-35.19 81.22-23.46 19.94-58.65 29.9-105.57 29.9zm68.26-114.3c0-14.82-5.38-26.99-16.14-36.51-10.77-9.53-28.14-14.3-52.12-14.3h-239.19v101.61h239.19c45.51 0 68.26-16.93 68.26-50.8zm-307.45-114.3h233.37c17.28 0 30.33-3.53 39.15-10.59 8.82-7.05 13.23-16.58 13.23-28.58 0-11.98-4.41-21.51-13.23-28.57-8.82-7.05-21.87-10.58-39.15-10.58h-233.37v78.32zm610.14 228.6V478.99h388.41v63.51H8697.6v82.55h201.09v63.49H8697.6v97.38h329.67v63.5h-402.69zm881.52-130.17h-178.25v130.17h-73.02V478.99h304.81c49.74 0 86.86 10.94 111.39 32.82 24.51 21.87 36.78 50.97 36.78 87.32 0 31.74-9.44 58.11-28.32 79.11-18.87 20.98-47.54 33.94-85.98 38.88l115.87 132.3h-89.95L9506.1 719.25zm53.54-63.51c50.44 0 75.67-18.87 75.67-56.61 0-37.76-25.23-56.63-75.67-56.63h-231.79v113.24h231.79zm641.35 34.39h-86.79c-124.17 0-186.25-34.39-186.25-103.18 0-37.4 17.71-66.15 53.17-86.25 35.46-20.12 89.52-30.17 162.2-30.17 37.03 0 72.84 3.18 107.41 9.53 34.58 6.34 59.81 12.7 75.68 19.05l23.8 9-33.85 52.38c-5.66-2.12-13.68-4.59-24.09-7.41-10.4-2.82-31.4-6.71-62.97-11.64-31.58-4.94-62.88-7.41-93.92-7.41-34.93 0-62.71 2.29-83.35 6.88-20.64 4.59-34.4 10.23-41.27 16.94-6.88 6.7-10.32 15.16-10.32 25.39 0 14.46 8.64 25.32 25.92 32.55 17.3 7.23 46.58 10.85 87.84 10.85h86.79c59.63 0 102.39 9.25 128.33 27.78 25.93 18.52 38.89 44.71 38.89 78.58 0 35.63-18.43 65.36-55.3 89.16-36.86 23.82-92.16 35.72-165.89 35.72-40.57 0-80.08-3.78-118.54-11.37-38.45-7.59-66.84-15.08-85.19-22.49l-27.52-11.64 34.39-56.62c6.98 2.46 16.32 5.91 28.05 10.14 11.82 4.23 34.83 10.05 69.24 17.37 34.31 7.41 67.55 11.11 99.57 11.11 51.86 0 89.52-5.73 112.98-17.19 23.46-11.47 35.18-25.66 35.18-42.6 0-15.18-6.78-26.37-20.37-33.6-13.58-7.24-38.19-10.86-73.82-10.86zm843.51-211.14v370.43h-73.02V689.61h-300.04v159.81h-73.02V478.99h73.02v147.12h300.04V478.99h73.02zm665.97 46.05c43.58 36.33 65.36 82.73 65.36 139.17 0 56.45-21.78 102.83-65.36 139.17-43.56 36.33-104.86 54.5-183.88 54.5s-140.31-18.17-183.89-54.5c-43.57-36.34-65.35-82.72-65.35-139.17 0-56.44 21.78-102.84 65.35-139.17 43.58-36.34 104.87-54.51 183.89-54.51 79.02 0 140.32 18.17 183.88 54.51zm-313.53 45.77c-31.05 24.52-46.57 55.65-46.57 93.4 0 37.74 15.52 68.88 46.57 93.39 31.05 24.53 74.27 36.78 129.65 36.78 55.38 0 98.61-12.25 129.64-36.78 31.05-24.51 46.58-55.65 46.58-93.39 0-37.75-15.53-68.88-46.58-93.4-31.03-24.51-74.26-36.78-129.64-36.78-55.38 0-98.6 12.27-129.65 36.78zm916.53 148.44h-231.78v130.17h-73.02V478.99h304.8c49.74 0 86.87 10.94 111.39 32.82 24.51 21.87 36.78 50.97 36.78 87.32 0 36.33-12.27 65.43-36.78 87.3-24.52 21.88-61.65 32.82-111.39 32.82zm0-63.51c50.45 0 75.68-18.87 75.68-56.61 0-37.76-25.23-56.63-75.68-56.63h-231.78v113.24h231.78z"/><path fill="#5b5b5b" d="M9374.78 2698.99l-95.87 55.35 95.87 55.35 95.87-55.35z"/><path class="fil3" d="M2361.26 1462.46v62.41l-239.93-138.53-462.54 267.05c-232.14-133.76-464.13-267.84-696.12-401.89v-62.39l38.75 22.39c173.11 100.01 344.74 199.2 632.57 365.05l24.83 14.3c154.25-89.05 308.52-178.72 461.89-267.27 80.18 46.29 160.34 92.57 240.55 138.88zM601.31 508.7l-150.2-86.72v-62.53l150.2 86.72zM600.99 980.16l.01 62.53-89.74-51.81v-62.51zM150.22 782.43L.01 695.71l.01-62.53 150.2 86.74zM1091.3 2616.42l.01 62.53L0 3309.01v-62.51zM1706.03 1146.55L962.37 717.2v-62.52l797.8 460.61zM2806.16 990.95l-83.39 48.16-.01-62.4 83.4-48.17zM2872.55 359.46l-.01 62.53-150.2 86.71v-62.51zM2360.96 717.34l-150 86.61v-62.53l149.99-86.59zM3317.42 3246.56v62.51c-363.01-209.56-726.08-419.03-1088.99-628.74v-62.4c362.84 209.82 725.95 419.14 1088.99 628.63zM3317.43 633.31v62.4l-149.91 86.55v-62.4z"/><path d="M3317.42 273.8l.02 301.91-199.91 115.42v2080.59l199.91 115.41-.02 301.94c-363.01-209.56-726.08-419.03-1088.99-628.75l-.02-301.94 182.67 105.46-.02-930.22-239.55-138.32 239.45-138.24V568.47l-200 115.47V381.96L2872.53 0l.02 301.98-200.01 115.47-.01 2097.35 183.42 105.89.01-1778.5-133.19 76.91-.04-301.96 594.69-343.34zM2071.2 935.37l-261.54 151.01-897.09-517.93.02 1791.72 178.74-103.2-.02 301.98L0 3189.01l.02-301.89 199.99-115.46.01-2080.48-200-115.47L0 273.74l601 346.99v301.96l-139.54-80.56.03 1778.49 189.61-109.47.01-2093.71-200-115.47.02-301.96L2071.2 935.37zm-412.49 296.09l702.15-405.39.02 301.97-702.09 405.35c-232.14-133.77-464.13-267.85-696.12-401.89V829.6l696.04 401.86z" fill="#2b2a29"/><path d="M2311.07 912.41l-652.35 376.65-646.05-373v186.73l38.75 22.39c233.74 135.05 468.85 270.89 607.35 350.74l652.31-376.61-.01-186.9zm956.57-365.54l-.01-186.84-495.1 285.83.03 186.89 133.21-76.91-.02 1951.08-283.02-163.39c0-718.27-.23-1436.54.02-2154.8l200-115.48-.01-186.91-561.78 324.35v186.9l200-115.46v703.55l-189.8 109.57 189.7 109.53.03 1045.29-182.67-105.46.01 186.88c426.23 246.31 592.91 342.51 773.33 446.65l216.07 124.71.01-186.99-200.11-115.52V662.41l200.11-115.54zm-1458.08 481.97l161.89-93.47L500.92 86.35l-.01 186.89 200.01 115.48c-.25 717.05-.02 1434.11-.02 2151.16l-289.2 166.97-.04-1950.94L551 836.35V649.46L49.81 360.09l.01 186.89 200.01 115.48c-.25 712.64-.02 1425.29-.02 2137.93L49.82 2915.85l-.01 186.93 991.7-572.56.01-186.9-178.72 103.2-.03-1964.3 946.79 546.62z" fill="#898989"/></g></g></svg>