<?xml version="1.0" encoding="UTF-8"?>
<!DOCTYPE svg PUBLIC "-//W3C//DTD SVG 1.1//EN" "http://www.w3.org/Graphics/SVG/1.1/DTD/svg11.dtd">
<!-- Creator: CorelDRAW 2019 (64-Bit) -->
<svg xmlns="http://www.w3.org/2000/svg" xml:space="preserve" width="111.118mm" height="111.007mm" version="1.1" style="shape-rendering:geometricPrecision; text-rendering:geometricPrecision; image-rendering:optimizeQuality; fill-rule:evenodd; clip-rule:evenodd"
viewBox="0 0 22790.59 22767.99"
 xmlns:xlink="http://www.w3.org/1999/xlink">
 <defs>
  <style type="text/css">
   <![CDATA[
    .fil0 {fill:#2B2A29;fill-rule:nonzero}
   ]]>
  </style>
 </defs>
 <g id="Слой_x0020_1">
  <metadata id="CorelCorpID_0Corel-Layer"/>
  <path class="fil0" d="M12456.36 20541.86l-46.58 2226.13 -984.21 -20.61 -374.64 -926.62 -19.22 918.39 -910.17 -19.03 46.56 -2226.13 941.71 19.69 416.73 1056.45 21.91 -1047.24 907.91 18.97zm-2420.51 -110.12l-482.61 2173.66 -1599.01 -355.03 109.96 -495.2 722.76 160.47 76.07 -342.67 -642.47 -142.63 109.96 -495.26 642.47 142.67 76.67 -345.33 -722.76 -160.47 109.96 -495.22 1599.01 355.01zm-4537.91 661.25l348.74 -975.04 -649.58 804.19 -787.27 -447.04 1508.84 -1703.75 799.96 454.26 -296.89 916.18 634.32 -724.57 799.99 454.3 -692.16 2167.51 -787.27 -447.06 357.84 -969.85 -658.28 799.25 -578.25 -328.37zm-836.23 -3560.8l-562.48 800.87 720.67 -615.68 587.5 687.65 -1692.92 1446.31 -739.48 -865.56 487.06 -802.63 -868.53 356.1 -740.96 -867.3 1692.94 -1446.29 588.65 689.04 -720.65 615.68 877.72 -431.89 370.48 433.69zm-2454.25 -1996.35l-64.73 -146.26 -659.94 380.02 724.67 -233.76zm1301.34 535.05l-2208.1 512.49 -543.98 -1229.12 1864.08 -1289.79 367.91 831.24 -418.76 246.33 109.11 246.55 462.77 -146.85 366.95 829.15zm-914.95 -2148.81l-2192 390.95 -172.84 -969.11 835.14 -549.12 -904.3 161.27 -159.84 -896.22 2192 -390.95 165.37 927.29 -954.18 615.82 1031.22 -183.9 159.43 893.96zm-1914.23 -4120.98l310.71 53.96 17.06 -98.14c8.04,-46.37 2.13,-81.73 -17.93,-105.16 -19.96,-23.89 -57.94,-40.22 -113.77,-49.92 -59.46,-10.34 -101.98,-8.43 -127.62,5.66 -25.68,14.09 -42.81,45.92 -51.4,95.46l-17.06 98.14zm1191.45 206.99l17.06 -98.14c8.59,-49.53 3.2,-85.26 -16.16,-107.19 -19.38,-21.93 -58.35,-37.96 -117.79,-48.3l-90.06 -15.65c-57.63,-10.03 -99.27,-7.96 -125.81,5.97 -26.54,13.97 -44.14,45.68 -52.73,95.21l-17.04 98.16 402.54 69.94zm347.71 978.38l-2193.72 -381.1 250.7 -1443.13c18.05,-104.01 43.46,-191.46 76.01,-261.38 32.65,-70.43 73.67,-124.99 123.08,-163.73 49.86,-38.64 109.75,-63.03 180.06,-72.61 70.39,-10.05 151.55,-7.08 243.4,8.88 145.42,25.25 252.17,73.04 319.69,143.67 67.58,70.21 105.94,175.18 115.21,314.1 53.14,-124.35 131.64,-207.67 235.52,-250.39 103.91,-42.7 249.47,-47.56 436.81,-15.03 207.13,35.98 345.41,105.01 414.97,206.62 69.57,101.61 85.84,258.9 49,470.98l-250.72 1443.13zm-165.58 -3393.33l59.79 -148.35 -732.47 -208.45 672.68 356.8zm523.2 1306.16l-1906.37 -1226.42 502.36 -1246.68 2224.08 437.98 -339.75 843.14 -468.48 -128.66 -100.77 250.08 427.83 229.55 -338.89 841.01zm112.31 -3976.36l-70.64 100.09 362.93 256.17 68.26 -96.73c26.11,-36.96 35.09,-70.33 27.01,-100.07 -7.81,-30.15 -36.26,-61.96 -83.7,-95.43l-101.16 -71.42c-47.79,-33.74 -87.31,-49.88 -118.55,-48.45 -31.24,1.46 -58.84,19.98 -84.15,55.83zm809.77 721.53l528.33 372.94 -524.18 742.62 -1819.08 -1284.03 856.82 -1213.82c60.1,-85.14 118.67,-152.31 175.51,-201.12 57.12,-49.2 114.78,-81.77 172.78,-97.34 58.25,-15.96 118.45,-14.85 180.61,3.28 61.76,17.86 127.8,51.09 196.53,99.58l353.95 249.86c164.29,115.97 253.88,232.36 268.17,347.61 6.91,45.7 1.62,96.81 -14.58,153.05 191.36,-73.02 463.84,14.13 815.82,262.02l-524.24 742.66c-352.96,-248.07 -575.31,-307.1 -666.42,-177.29zm888.9 -2528.76l206.85 238.04 75.19 -65.37c35.52,-30.87 53.27,-62 52.51,-92.83 -0.39,-31.13 -19.53,-67.79 -56.71,-110.57 -39.56,-45.55 -73.76,-70.92 -102.53,-76.18 -28.8,-5.27 -62.17,8.57 -100.13,41.57l-75.17 65.33zm793.22 912.79l75.17 -65.35c37.96,-32.96 56.32,-64.07 55.15,-93.32 -1.19,-29.23 -21.27,-66.29 -60.83,-111.82l-59.97 -69c-38.37,-44.16 -71.93,-68.85 -101.34,-74.8 -29.39,-5.95 -63.05,7.57 -100.99,40.53l-75.19 65.37 268.01 308.39zm-348.16 978.24l-1460.5 -1680.68 1105.63 -960.77c79.66,-69.24 154.57,-121.03 223.97,-154.71 69.78,-33.99 136.05,-50.41 198.83,-49.22 63.05,1.48 124.91,20.41 185.47,57.37 60.94,36.67 121.97,90.18 183.14,160.55 96.83,111.41 149.44,215.87 157.17,313.25 8.1,97.14 -28.45,202.77 -108.97,316.33 119.74,-62.86 233.2,-77.9 340.72,-45.43 107.56,32.47 223.52,120.62 348.24,264.13 137.89,158.69 201.53,299.51 191.32,422.23 -10.23,122.73 -96.93,254.96 -259.39,396.16l-1105.63 960.79zm1699.42 -1381.68l-1015.08 -1981.75 1457.83 -746.72 231.25 451.49 -658.96 337.54 160 312.39 585.75 -300.03 231.3 451.51 -585.78 300.03 161.27 314.83 658.98 -337.54 231.25 451.53 -1457.83 746.7zm2105.8 -2736.8l-117.77 33.64 121.95 427.17 113.83 -32.51c43.5,-12.41 71.44,-32.78 83.81,-61 12.8,-28.37 10.62,-71.01 -5.33,-126.82l-34.01 -119.08c-16.04,-56.26 -36.69,-93.61 -61.92,-112.09 -25.23,-18.46 -58.37,-21.33 -100.56,-9.31zm178.07 1069.88l177.52 621.83 -874.07 249.57 -611.27 -2141.07 1428.69 -407.87c100.19,-28.61 187.96,-44.18 262.84,-46.54 75.35,-2.5 140.68,8.29 195.63,32.55 55.36,24.14 101.57,62.74 138.59,115.86 36.9,52.67 67.52,119.96 90.59,200.82l118.94 416.63c55.19,193.37 51.97,340.2 -9.19,438.92 -23.3,39.91 -59.46,76.4 -107.35,110.06 194.83,63.15 352.37,301.93 470.98,715.79l-874.09 249.55c-119.31,-414.62 -255.46,-600.07 -407.81,-556.1zm2011.02 301.3c-190.48,6.07 -335.55,-23.22 -434.76,-89.3 -99.23,-65.63 -149.77,-178.67 -151.61,-339.14l-13.43 -390.05 940.89 -32.43 5.21 151.2c3.55,102.76 43.22,152.62 119.04,149.99 40.18,-1.37 68.98,-15.16 86.82,-41.39 17.84,-26.23 25.97,-69.49 23.89,-129.79 -1.15,-33.33 -3.94,-61.14 -8.35,-82.94 -4.41,-21.78 -12.39,-40.71 -23.89,-56.34 -11.53,-16.04 -27.52,-29.68 -48.96,-40.84 -20.98,-11.61 -49.27,-22.99 -84.44,-34.6l-645.73 -214.17c-149.89,-49.72 -251.46,-104.73 -304.31,-165.11 -53.86,-63.07 -82.41,-148.99 -86.12,-256.79l-7.98 -231.56c-4.55,-132.46 40.41,-234.17 134.88,-305.54 94.49,-71.4 236.75,-110.57 427.21,-117.16l946.82 -32.59c190.95,-6.58 336,22.7 434.72,87.44 99.17,64.73 150.59,163.1 155.14,295.57l8.8 254.86 -934.53 32.18 -0.9 -26.03c-3.36,-97.75 -44.79,-145.25 -124.72,-142.51 -32.88,1.15 -59.48,12.1 -78.43,32.43 -19.42,20.35 -28.61,46.27 -27.5,77.8 0.55,15.98 2.4,30.07 6.42,40.9 3.59,11.32 11.75,22.01 23.55,32.59 12.24,10.09 29.53,20.94 51.38,31.61 21.43,11.18 51.09,22.48 88.56,35.36l752.11 261.28c47.26,17.56 87.72,38.13 121.48,61.65 33.29,24.02 60.79,52.79 83.03,87.7 21.8,34.89 38.33,76.87 48.71,125.91 10.85,49.47 16.96,107.33 19.28,174.93l8.22 238.86c3.3,188.31 -40.16,321.03 -129.44,397.74 -89.24,76.71 -234.17,118.26 -434.68,125.65l-946.37 32.61zm1670.63 -7.59l511.38 -2167.1 878.93 207.42 -173.09 733.49 185.02 43.67 173.09 -733.49 878.93 207.42 -511.4 2167.08 -878.91 -207.42 221.68 -939.43 -185.02 -43.67 -221.7 939.43 -878.91 -207.4zm3622.6 -487.45l-406.86 799.08c-26.13,50.27 -36.45,90.68 -31.79,120.74 5.09,30.27 25.54,54.58 62.17,73.22 36.65,18.71 68.73,21.19 96.25,7.51 27.46,-13.66 54.48,-45.55 80.63,-95.82l406.47 -799.29c48.96,-96.09 38.87,-161.76 -30.77,-197.29 -36.65,-18.66 -68.96,-20.76 -96.46,-6.05 -27.48,14.71 -53.9,47.4 -79.64,97.9zm-1040.9 1223.75c-90.8,-46.29 -163.61,-93.65 -217.61,-142.73 -54.37,-49.27 -91.35,-103.5 -110.92,-161.72 -19.59,-58.19 -22.97,-122 -9.76,-191.18 12.8,-69.39 41.62,-147.02 85.63,-233.37l552.96 -1084.69c75.77,-148.6 170.46,-235.75 282.88,-262.06 112.62,-26.72 255.46,4.04 428.09,92.05l848.53 432.56c92.83,47.32 167.88,95.33 225.12,144.02 57.49,48.28 98.16,100.32 122.26,155.67 24.1,55.38 32.22,114.92 23.75,178.81 -7.88,63.73 -31.3,132.82 -69.88,207.54l-552.98 1084.69c-89.67,175.9 -190.44,279.97 -303.1,312.8 -55.11,17.56 -120.93,17.86 -197.25,0.51 -76.3,-17.35 -162.3,-50.95 -259.19,-100.36l-848.53 -432.56zm3418.33 156.72l-91.33 -81.59 -416.52 466.26 88.28 78.88c33.76,30.13 65.86,42.87 96.67,37.9 30.81,-4.33 65.39,-28.61 104.36,-72.24l202.79 -226.99c38.95,-43.63 59.5,-81.04 61.61,-112.25 2.15,-31.2 -13.13,-60.75 -45.84,-89.98zm-1918 598.8l1483.37 -1660.54 1108.03 989.83c77.71,69.41 137.75,135.29 179.75,197.35 42.35,62.33 68.14,123.33 77,182.75 9.19,59.66 1.23,119.37 -23.89,179.03 -24.82,59.34 -65.35,121.15 -121.4,183.88l-408.91 457.75c-134.24,150.28 -259.8,225.65 -376.24,227.05 -114.39,3.22 -252.01,-67.03 -413.24,-211.05l-430.12 -384.24 -396.44 443.76 -677.89 -605.57zm3802.82 2122.45l-352.06 -554.93 -465.03 295 352.06 554.95 465.03 -295.02zm-519.51 1762.19l2148.54 -584.4 258.37 949.92 -783 621.26 886.37 -241.1 238.92 878.46 -2148.54 584.38 -247.19 -908.92 895.6 -698.25 -1010.77 274.9 -238.31 -876.24zm2243.65 3217.6l-896.14 31.28c-56.65,1.5 -96.99,12.04 -121.03,30.68 -24.04,19.14 -35.36,48.77 -33.97,89.88 1.42,41.12 14.79,70.39 40.08,87.83 25.27,17.41 66.27,25.6 122.92,24.12l896.12 -31.75c107.78,-3.71 160.37,-44.38 157.66,-122.51 -1.42,-41.08 -15.22,-70.35 -41.41,-87.27 -26.19,-16.96 -67.58,-24.2 -124.23,-22.25zm-1574.87 -317.6c-3.51,-101.85 2.65,-188.49 19.4,-259.5 16.78,-71.44 46.29,-130.1 87.72,-175.4 41.45,-45.33 95.62,-79.21 162.52,-101.18 66.9,-22.42 148.78,-34.83 245.61,-38.17l1216.8 -41.84c166.73,-5.74 288.83,34.85 366.31,120.46 77.94,85.55 120.25,225.41 126.92,419.07l32.76 951.88c3.57,104.13 -2.03,193.02 -16.88,266.7 -14.42,73.69 -40.2,134.49 -76.98,182.36 -36.75,47.91 -84.91,83.89 -144.91,107.45 -59.54,24 -131.35,37 -215.4,39.42l-1216.8 41.88c-197.33,6.77 -337.19,-30.95 -420.5,-113.61 -42.07,-39.69 -74.23,-97.14 -96.01,-172.29 -21.8,-75.15 -34.09,-166.67 -37.82,-275.37l-32.76 -951.86zm1515.28 3080.49l28.12 -119.21 -432.36 -102 -27.18 115.21c-10.4,44.04 -6.26,78.35 12.35,102.92 18.52,25.04 56.79,43.93 113.28,57.26l120.54 28.43c56.94,13.43 99.62,13.64 128.05,0.62 28.45,-13 47.13,-40.51 57.2,-83.23zm-1020.72 -366.66l-629.42 -148.52 208.75 -884.69 2167.1 511.3 -341.19 1446.06c-23.94,101.4 -53.18,185.62 -87.66,252.13 -34.6,66.97 -75.91,118.71 -123.86,154.85 -48.1,36.55 -104.34,58.04 -168.78,64.44 -63.97,6.5 -137.64,0.35 -219.48,-18.95l-421.69 -99.5c-195.71,-46.17 -322.32,-120.64 -378.62,-222.21 -23.48,-39.81 -37.68,-89.18 -43.67,-147.41 -150.24,139.2 -435.54,160.21 -854.62,61.78l208.75 -884.73c420.09,98.2 648.39,69.88 684.39,-84.56zm-953.55 1099.19l2065.23 832.25 -338.22 839.3 -2065.23 -832.23 338.22 -839.32zm-369.47 975l1921.22 1125.46 -453.93 774.88 -1483.49 -869.02 -279.97 477.93 -437.73 -256.44 733.9 -1252.81zm-1174.52 1812.83c127.33,-141.83 248.79,-226.35 365.17,-252.32 116.01,-26.27 232.59,15.36 349.8,124.99l291.04 260.03 -627.23 702.09 -112.83 -100.81c-76.67,-68.48 -140.13,-74.33 -190.66,-17.74 -26.79,30.01 -36.73,60.34 -30.13,91.35 6.6,31.03 32.22,66.8 77.24,107.02 24.86,22.19 46.87,39.42 65.67,51.32 18.79,11.88 37.96,19.22 57.22,21.68 19.55,2.79 40.47,0.66 63.36,-7.1 22.89,-7.14 50.68,-19.69 83.37,-37.08l601.24 -318.36c139.55,-73.9 249.55,-109.2 329.7,-105.63 82.82,4.72 164.62,43.5 245.06,115.35l172.78 154.36c98.86,88.3 141.21,191.12 127.47,308.74 -13.78,117.61 -83.85,247.48 -210.83,389.59l-631.18 706.5c-127.29,142.49 -248.75,227.01 -363.77,253.55 -115.33,26.89 -221.96,-4.02 -320.78,-92.32l-190.19 -169.91 622.98 -697.31 19.42 17.35c72.93,65.18 135.9,68.09 189.19,8.45 21.93,-24.55 32.39,-51.34 30.83,-79.09 -1.25,-28.08 -13.64,-52.63 -37.19,-73.65 -11.92,-10.64 -23.38,-19.07 -33.99,-23.65 -10.67,-5.23 -24.02,-6.75 -39.81,-5.54 -15.75,1.87 -35.54,6.89 -58.37,15.28 -22.89,7.75 -51.56,21.33 -86.8,39.5l-708.82 362.62c-45.37,21.99 -88.19,37 -128.56,45.12 -40.36,7.42 -80.17,7.4 -120.76,-0.66 -40.26,-8.41 -82.02,-25.49 -124.62,-51.89 -43.22,-26.4 -89.26,-61.98 -139.72,-107.04l-178.21 -159.22c-138.3,-127.86 -204.16,-251.05 -197.8,-368.55 6.32,-117.54 76.48,-250.94 209.8,-400.87l630.9 -706.17zm-1132.29 1227.54l1258.39 1836.88 -746.12 511.16 -508.57 -742.37 263.13 910.52 -775.56 531.32 -290.94 -1053.8 -984.41 -771.48 766.86 -525.35 846.3 653.91 -575.21 -839.65 746.15 -511.14zm-3088.73 3156.4l622.3 -211.26 -177.02 -521.48 -622.3 211.26 177.02 521.48z"/>
 </g>
</svg>
