<?xml version="1.0" encoding="UTF-8"?>
<!DOCTYPE svg PUBLIC "-//W3C//DTD SVG 1.1//EN" "http://www.w3.org/Graphics/SVG/1.1/DTD/svg11.dtd">
<!-- Creator: CorelDRAW 2019 (64-Bit) -->
<svg xmlns="http://www.w3.org/2000/svg" xml:space="preserve" width="94.8682mm" height="94.8682mm" version="1.1" style="shape-rendering:geometricPrecision; text-rendering:geometricPrecision; image-rendering:optimizeQuality; fill-rule:evenodd; clip-rule:evenodd"
viewBox="0 0 4668 4668"
 xmlns:xlink="http://www.w3.org/1999/xlink">
 <defs>
  <style type="text/css">
   <![CDATA[
    .str1 {stroke:#898989;stroke-width:50.15;stroke-miterlimit:10;stroke-opacity:0.050980}
    .str0 {stroke:#898989;stroke-width:48.12;stroke-miterlimit:10;stroke-opacity:0.101961}
    .fil7 {fill:none;fill-rule:nonzero}
    .fil6 {fill:none;fill-rule:nonzero}
    .fil2 {fill:#898989}
    .fil4 {fill:#898989}
    .fil3 {fill:#2B2A29}
    .fil0 {fill:#D9DADA;fill-rule:nonzero}
    .fil5 {fill:#898989;fill-rule:nonzero}
    .fil1 {fill:white;fill-rule:nonzero}
   ]]>
  </style>
 </defs>
 <g id="Слой_x0020_1">
  <metadata id="CorelCorpID_0Corel-Layer"/>
  <path class="fil0" d="M4463.29 2334.01c0,1175.97 -953.33,2129.28 -2129.28,2129.28 -1175.98,0 -2129.29,-953.31 -2129.29,-2129.28 0,-1175.98 953.31,-2129.29 2129.29,-2129.29 1175.95,0 2129.28,953.31 2129.28,2129.29z"/>
  <path class="fil1" d="M4396.02 2334.01c0,1138.82 -923.22,2062.01 -2062.01,2062.01 -1138.83,0 -2062.02,-923.19 -2062.02,-2062.01 0,-1138.83 923.19,-2062.02 2062.02,-2062.02 1138.79,0 2062.01,923.19 2062.01,2062.02z"/>
  <g id="_2321405337408">
   <g>
    <path class="fil2" d="M2685.9 1592.28l0 32.53 -125.04 -72.2 -241.05 139.17c-120.97,-69.71 -241.87,-139.59 -362.77,-209.44l-0 -32.51 20.2 11.67c90.21,52.12 179.66,103.81 329.65,190.24l12.94 7.45c80.39,-46.41 160.78,-93.14 240.71,-139.29 41.79,24.13 83.56,48.25 125.36,72.38z"/>
    <polygon class="fil2" points="1768.73,1095.24 1690.45,1050.05 1690.45,1017.47 1768.73,1062.66 "/>
    <polygon class="fil2" points="1768.57,1340.94 1768.57,1373.53 1721.8,1346.53 1721.8,1313.95 "/>
    <polygon class="fil2" points="1533.65,1237.9 1455.37,1192.7 1455.37,1160.11 1533.65,1205.32 "/>
    <polygon class="fil2" points="2024.08,2193.66 2024.08,2226.25 1455.37,2554.59 1455.37,2522.01 "/>
    <polygon class="fil2" points="2344.44,1427.65 1956.89,1203.9 1956.89,1171.32 2372.65,1411.37 "/>
    <polygon class="fil2" points="2917.76,1346.56 2874.3,1371.66 2874.29,1339.15 2917.76,1314.04 "/>
    <polygon class="fil2" points="2952.35,1017.47 2952.35,1050.06 2874.08,1095.25 2874.07,1062.67 "/>
    <polygon class="fil2" points="2685.74,1203.98 2607.57,1249.11 2607.58,1216.52 2685.74,1171.4 "/>
    <path class="fil2" d="M3184.19 2522.04l0 32.58c-189.18,-109.21 -378.39,-218.37 -567.51,-327.66l0 -32.52c189.09,109.35 378.32,218.43 567.51,327.6z"/>
    <polygon class="fil2" points="3184.2,1160.19 3184.2,1192.7 3106.07,1237.81 3106.07,1205.29 "/>
   </g>
   <g>
    <path class="fil3" d="M2319.78 1471.9l365.91 -211.26 0.01 157.37 -365.89 211.24c-120.98,-69.71 -241.87,-139.59 -362.77,-209.44l0 -157.33 362.74 209.42z"/>
    <polygon class="fil3" points="2534.74,1317.6 2398.44,1396.29 1930.94,1126.38 1930.94,2060.12 2024.09,2006.33 2024.08,2163.71 1455.37,2492.05 1455.37,2334.73 1559.6,2274.56 1559.6,1190.34 1455.37,1130.17 1455.37,972.8 1768.57,1153.63 1768.57,1310.99 1695.85,1269.01 1695.86,2195.84 1794.67,2138.8 1794.68,1047.69 1690.45,987.51 1690.46,830.15 "/>
    <path class="fil3" d="M3184.19 972.83l0.01 157.33 -104.18 60.15 0 1084.27 104.18 60.14 -0.01 157.35c-189.17,-109.21 -378.38,-218.37 -567.51,-327.67l-0 -157.35 95.19 54.96 -0.01 -484.77 -124.84 -72.09 124.79 -72.04 0 -306.73 -104.23 60.17 0 -157.37 344.77 -199.05 0.01 157.37 -104.23 60.18 -0 1093 95.58 55.18 0.01 -926.84 -69.41 40.08 -0.02 -157.36 309.91 -178.92z"/>
   </g>
   <path class="fil4" d="M2659.74 1305.63l-339.96 196.28 -336.68 -194.38 0 97.31 20.19 11.67c121.81,70.38 244.33,141.17 316.51,182.78l339.94 -196.26 -0 -97.4zm498.51 -190.5l-0.01 -97.37 -258.01 148.95 0.01 97.4 69.42 -40.08 -0.01 1016.78 -147.49 -85.15c0,-374.32 -0.12,-748.63 0.01,-1122.94l104.23 -60.18 -0 -97.41 -292.76 169.03 0 97.4 104.23 -60.17 0 366.65 -98.91 57.1 98.86 57.08 0.02 544.75 -95.2 -54.96 0 97.39c222.12,128.36 308.98,178.49 403.01,232.76l112.6 64.99 0.01 -97.45 -104.29 -60.2 0 -1114.15 104.29 -60.22zm-759.86 251.18l84.37 -48.71 -766.35 -442.46 -0.01 97.4 104.24 60.18c-0.13,373.68 -0.01,747.37 -0.01,1121.05l-150.71 87.01 -0.02 -1016.7 72.62 41.92 0 -97.4 -261.19 -150.8 0 97.39 104.23 60.18c-0.13,371.38 -0.01,742.77 -0.01,1114.15l-104.22 60.17 -0 97.41 516.81 -298.38 0.01 -97.4 -93.14 53.78 -0.02 -1023.67 493.41 284.87z"/>
  </g>
  <path class="fil5" d="M1544.34 3610.95c16.65,6.84 29.65,16.79 39.01,29.87 9.36,13.08 14.05,27.94 14.05,44.59 0,19.62 -6.91,36.64 -20.74,51.06 -13.82,14.42 -32.4,25.41 -55.73,33 -23.34,7.58 -49.27,11.37 -77.81,11.37 -45.48,0 -88.73,-9.07 -129.75,-27.2l30.77 -72.68c14.56,5.94 29.72,10.48 45.48,13.6 15.76,3.12 30.62,4.68 44.59,4.68 16.94,0 30.69,-2.38 41.24,-7.13 10.55,-4.76 15.83,-11.75 15.83,-20.96 0,-12.48 -10.26,-18.72 -30.77,-18.72l-84.27 0 0 -75.81 75.36 0c8.92,0 15.68,-1.63 20.29,-4.9 4.61,-3.27 6.91,-7.88 6.91,-13.82 0,-7.73 -4.08,-13.67 -12.26,-17.84 -8.17,-4.16 -18.95,-6.24 -32.32,-6.24 -12.49,0 -26.01,1.79 -40.58,5.35 -14.56,3.56 -28.39,8.62 -41.47,15.16l-30.77 -78.03c34.48,-15.75 71.94,-23.63 112.36,-23.63 27.05,0 52.09,3.71 75.13,11.14 23.04,7.43 41.47,18.21 55.29,32.33 13.82,14.12 20.73,30.69 20.73,49.72 0,13.97 -3.57,26.61 -10.7,37.9 -7.13,11.3 -17.09,20.37 -29.88,27.2zm310.78 107.91l-118.61 0 -20.96 54.4 -107.01 0 136.44 -312.12 103.44 0 136.44 312.12 -108.79 0 -20.96 -54.4zm-28.99 -75.8l-30.32 -78.48 -30.32 78.48 60.64 0zm489.59 -181.93l0 312.12 -103.45 0 0 -230.53 -94.97 0 0 230.53 -103.45 0 0 -312.12 301.87 0zm55.29 0l103.45 0 0 162.3 107.46 -162.3 98.99 0 0 312.12 -103.45 0 0 -161.86 -107.01 161.86 -99.43 0 0 -312.12zm522.14 319.26c-33,0 -62.72,-6.91 -89.18,-20.74 -26.45,-13.82 -47.19,-33.14 -62.2,-57.96 -15.01,-24.82 -22.52,-52.99 -22.52,-84.5 0,-31.51 7.5,-59.68 22.52,-84.5 15.01,-24.82 35.75,-44.15 62.2,-57.97 26.46,-13.82 56.18,-20.73 89.18,-20.73 30.32,0 57.37,5.35 81.15,16.05 23.78,10.7 43.4,26.16 58.86,46.37l-66.44 59.3c-19.32,-24.38 -42.06,-36.56 -68.22,-36.56 -21.99,0 -39.68,7.06 -53.06,21.18 -13.38,14.12 -20.07,33.07 -20.07,56.85 0,23.78 6.69,42.73 20.07,56.85 13.37,14.12 31.06,21.18 53.06,21.18 26.16,0 48.9,-12.19 68.22,-36.56l66.44 59.3c-15.46,20.21 -35.08,35.67 -58.86,46.38 -23.78,10.7 -50.83,16.05 -81.15,16.05zm339.76 -223.39c38.94,0 68.97,8.69 90.07,26.08 21.1,17.39 31.66,43.03 31.66,76.92 0,36.56 -12.04,64.58 -36.12,84.05 -24.08,19.47 -57.07,29.2 -98.99,29.2l-154.73 0 0 -312.12 103.45 0 0 95.87 64.65 0zm-20.51 142.69c10.7,0 19.47,-3.35 26.31,-10.03 6.84,-6.69 10.26,-15.98 10.26,-27.86 0,-20.81 -12.19,-31.22 -36.56,-31.22l-44.14 0 0 69.11 44.14 0z"/>
  <path class="fil5" d="M1209.06 3264.93c-41.7,0 -79.15,-8.67 -112.36,-26.01 -33.21,-17.34 -59.22,-41.42 -78.04,-72.23 -18.82,-30.81 -28.23,-65.59 -28.23,-104.33 0,-38.74 9.41,-73.52 28.23,-104.33 18.82,-30.81 44.83,-54.89 78.04,-72.23 33.21,-17.34 70.66,-26.01 112.36,-26.01 41.7,0 79.15,8.67 112.36,26.01 33.21,17.34 59.22,41.42 78.04,72.23 18.82,30.81 28.23,65.59 28.23,104.33 0,38.74 -9.41,73.52 -28.23,104.33 -18.82,30.81 -44.83,54.89 -78.04,72.23 -33.21,17.34 -70.66,26.01 -112.36,26.01zm0 -105.72c16.23,0 30.9,-3.97 44,-11.9 13.1,-7.93 23.52,-19.19 31.27,-33.76 7.74,-14.57 11.62,-31.64 11.62,-51.2 0,-19.55 -3.88,-36.62 -11.62,-51.2 -7.75,-14.57 -18.18,-25.83 -31.27,-33.76 -13.1,-7.93 -27.77,-11.9 -44,-11.9 -16.24,0 -30.9,3.97 -44,11.9 -13.1,7.93 -23.52,19.19 -31.27,33.76 -7.75,14.57 -11.62,31.64 -11.62,51.2 0,19.55 3.87,36.62 11.62,51.2 7.75,14.57 18.17,25.83 31.27,33.76 13.1,7.93 27.77,11.9 44,11.9zm647.56 -290.57l0 387.43 -130.62 0 0 -142.8 -120.66 0 0 142.8 -130.62 0 0 -387.43 130.62 0 0 137.26 120.66 0 0 -137.26 130.62 0zm446.65 0l0 387.43 -128.41 0 0 -286.15 -88.55 0 -1.11 44.83c-1.48,55.35 -5.9,100.73 -13.29,136.16 -7.38,35.42 -20.29,63.01 -38.74,82.74 -18.45,19.74 -44.83,29.61 -79.15,29.61 -17.34,0 -35.79,-2.4 -55.35,-7.19l6.64 -104.61c4.79,1.11 9.59,1.66 14.39,1.66 13.65,0 24.08,-5.54 31.27,-16.6 7.2,-11.07 12.08,-25.83 14.67,-44.28 2.58,-18.45 4.43,-42.62 5.54,-72.5l4.98 -151.1 327.11 0zm342.05 319.91l-147.23 0 -26.01 67.52 -132.83 0 169.36 -387.43 128.41 0 169.36 387.43 -135.05 0 -26.01 -67.52zm-35.98 -94.09l-37.64 -97.41 -37.64 97.41 75.27 0zm233.02 -225.82l128.41 0 0 201.47 133.39 -201.47 122.88 0 0 387.43 -128.41 0 0 -200.91 -132.83 200.91 -123.43 0 0 -387.43zm192.06 -22.14c-42.8,0 -73.62,-7.94 -92.43,-23.8 -18.82,-15.87 -28.23,-39.66 -28.23,-71.4l86.9 0c0,12.54 2.49,21.58 7.47,27.12 4.98,5.54 13.74,8.3 26.29,8.3 12.54,0 21.49,-2.77 26.84,-8.3 5.35,-5.54 8.03,-14.57 8.03,-27.12l86.9 0c0,31.73 -9.6,55.53 -28.78,71.4 -19.19,15.86 -50.18,23.8 -92.98,23.8zm643.14 22.14l0 387.43 -130.62 0 0 -142.8 -120.66 0 0 142.8 -130.62 0 0 -387.43 130.62 0 0 137.26 120.66 0 0 -137.26 130.62 0z"/>
  <path class="fil6 str0" d="M4549.19 2334.01c0,1223.42 -991.79,2215.19 -2215.19,2215.19 -1223.43,0 -2215.2,-991.77 -2215.2,-2215.19 0,-1223.43 991.77,-2215.2 2215.2,-2215.2 1223.39,0 2215.19,991.77 2215.19,2215.2z"/>
  <path class="fil7 str1" d="M4642.93 2334.01c0,1275.19 -1033.76,2308.92 -2308.92,2308.92 -1275.2,0 -2308.93,-1033.74 -2308.93,-2308.92 0,-1275.2 1033.74,-2308.93 2308.93,-2308.93 1275.16,0 2308.92,1033.74 2308.92,2308.93z"/>
 </g>
</svg>
