<svg width="161" height="29" viewBox="0 0 161 29" fill="none" xmlns="http://www.w3.org/2000/svg">
<path d="M19.3333 15.0009C19.3032 11.4349 22.2787 9.70175 22.4094 9.62206C20.7206 7.19164 18.1069 6.85298 17.1922 6.8231C15.0007 6.594 12.8696 8.12795 11.7537 8.12795C10.6178 8.12795 8.88875 6.85298 7.03908 6.88286C4.65663 6.9227 2.41491 8.28732 1.19855 10.4189C-1.32463 14.7518 0.555192 21.1267 2.97786 24.6329C4.19421 26.3461 5.60157 28.2685 7.46129 28.1988C9.27075 28.1291 9.95432 27.0533 12.1357 27.0533C14.3071 27.0533 14.9404 28.1988 16.8303 28.159C18.7805 28.1291 19.9968 26.4358 21.173 24.7026C22.5703 22.7403 23.1332 20.798 23.1533 20.6984C23.1031 20.6785 19.3736 19.264 19.3333 15.0009ZM15.7647 4.52217C16.7398 3.31692 17.4033 1.6734 17.2223 0C15.815 0.0597643 14.0457 0.96619 13.0304 2.15152C12.1357 3.19739 11.3315 4.90068 11.5326 6.50435C13.1209 6.62388 14.7494 5.70749 15.7647 4.52217Z" fill="white"/>
<path d="M47.7257 17.732H42.8257L41.8597 20H39.9837L44.3937 10.2H46.1857L50.6097 20H48.7057L47.7257 17.732ZM47.1237 16.304L45.2757 12.02L43.4417 16.304H47.1237ZM59.888 10.2C60.7374 10.2 61.4747 10.34 62.1 10.62C62.7347 10.9 63.22 11.3013 63.556 11.824C63.892 12.3467 64.06 12.9673 64.06 13.686C64.06 14.3953 63.892 15.016 63.556 15.548C63.22 16.0707 62.7347 16.472 62.1 16.752C61.4747 17.032 60.7374 17.172 59.888 17.172H57.676V20H55.856V10.2H59.888ZM59.804 15.632C60.5974 15.632 61.1994 15.464 61.61 15.128C62.0207 14.792 62.226 14.3113 62.226 13.686C62.226 13.0607 62.0207 12.58 61.61 12.244C61.1994 11.908 60.5974 11.74 59.804 11.74H57.676V15.632H59.804ZM73.9095 10.2C74.7589 10.2 75.4962 10.34 76.1215 10.62C76.7562 10.9 77.2415 11.3013 77.5775 11.824C77.9135 12.3467 78.0815 12.9673 78.0815 13.686C78.0815 14.3953 77.9135 15.016 77.5775 15.548C77.2415 16.0707 76.7562 16.472 76.1215 16.752C75.4962 17.032 74.7589 17.172 73.9095 17.172H71.6975V20H69.8775V10.2H73.9095ZM73.8255 15.632C74.6189 15.632 75.2209 15.464 75.6315 15.128C76.0422 14.792 76.2475 14.3113 76.2475 13.686C76.2475 13.0607 76.0422 12.58 75.6315 12.244C75.2209 11.908 74.6189 11.74 73.8255 11.74H71.6975V15.632H73.8255ZM94.9429 20.14C94.1869 20.14 93.4542 20.0327 92.7449 19.818C92.0449 19.6033 91.4895 19.3187 91.0789 18.964L91.7089 17.55C92.1102 17.8673 92.6002 18.1287 93.1789 18.334C93.7669 18.53 94.3549 18.628 94.9429 18.628C95.6709 18.628 96.2122 18.5113 96.5669 18.278C96.9309 18.0447 97.1129 17.7367 97.1129 17.354C97.1129 17.074 97.0102 16.8453 96.8049 16.668C96.6089 16.4813 96.3569 16.3367 96.0489 16.234C95.7409 16.1313 95.3209 16.0147 94.7889 15.884C94.0422 15.7067 93.4355 15.5293 92.9689 15.352C92.5115 15.1747 92.1149 14.8993 91.7789 14.526C91.4522 14.1433 91.2889 13.63 91.2889 12.986C91.2889 12.4447 91.4335 11.9547 91.7229 11.516C92.0215 11.068 92.4649 10.7133 93.0529 10.452C93.6502 10.1907 94.3782 10.06 95.2369 10.06C95.8342 10.06 96.4222 10.1347 97.0009 10.284C97.5795 10.4333 98.0789 10.648 98.4989 10.928L97.9249 12.342C97.4955 12.09 97.0475 11.8987 96.5809 11.768C96.1142 11.6373 95.6615 11.572 95.2229 11.572C94.5042 11.572 93.9675 11.6933 93.6129 11.936C93.2675 12.1787 93.0949 12.5007 93.0949 12.902C93.0949 13.182 93.1929 13.4107 93.3889 13.588C93.5942 13.7653 93.8509 13.9053 94.1589 14.008C94.4669 14.1107 94.8869 14.2273 95.4189 14.358C96.1469 14.526 96.7442 14.7033 97.2109 14.89C97.6775 15.0673 98.0742 15.3427 98.4009 15.716C98.7369 16.0893 98.9049 16.5933 98.9049 17.228C98.9049 17.7693 98.7555 18.2593 98.4569 18.698C98.1675 19.1367 97.7242 19.4867 97.1269 19.748C96.5295 20.0093 95.8015 20.14 94.9429 20.14ZM106.561 11.74H103.313V10.2H111.629V11.74H108.381V20H106.561V11.74ZM121.436 20.14C120.437 20.14 119.537 19.9253 118.734 19.496C117.931 19.0573 117.301 18.4553 116.844 17.69C116.387 16.9153 116.158 16.052 116.158 15.1C116.158 14.148 116.387 13.2893 116.844 12.524C117.301 11.7493 117.931 11.1473 118.734 10.718C119.537 10.2793 120.437 10.06 121.436 10.06C122.435 10.06 123.335 10.2793 124.138 10.718C124.941 11.1473 125.571 11.7447 126.028 12.51C126.485 13.2753 126.714 14.1387 126.714 15.1C126.714 16.0613 126.485 16.9247 126.028 17.69C125.571 18.4553 124.941 19.0573 124.138 19.496C123.335 19.9253 122.435 20.14 121.436 20.14ZM121.436 18.544C122.089 18.544 122.677 18.3993 123.2 18.11C123.723 17.8113 124.133 17.4007 124.432 16.878C124.731 16.346 124.88 15.7533 124.88 15.1C124.88 14.4467 124.731 13.8587 124.432 13.336C124.133 12.804 123.723 12.3933 123.2 12.104C122.677 11.8053 122.089 11.656 121.436 11.656C120.783 11.656 120.195 11.8053 119.672 12.104C119.149 12.3933 118.739 12.804 118.44 13.336C118.141 13.8587 117.992 14.4467 117.992 15.1C117.992 15.7533 118.141 16.346 118.44 16.878C118.739 17.4007 119.149 17.8113 119.672 18.11C120.195 18.3993 120.783 18.544 121.436 18.544ZM139.055 20L137.053 17.13C136.969 17.1393 136.843 17.144 136.675 17.144H134.463V20H132.643V10.2H136.675C137.524 10.2 138.262 10.34 138.887 10.62C139.522 10.9 140.007 11.3013 140.343 11.824C140.679 12.3467 140.847 12.9673 140.847 13.686C140.847 14.4233 140.665 15.058 140.301 15.59C139.946 16.122 139.433 16.5187 138.761 16.78L141.015 20H139.055ZM139.013 13.686C139.013 13.0607 138.808 12.58 138.397 12.244C137.986 11.908 137.384 11.74 136.591 11.74H134.463V15.646H136.591C137.384 15.646 137.986 15.478 138.397 15.142C138.808 14.7967 139.013 14.3113 139.013 13.686ZM154.233 18.474V20H146.883V10.2H154.037V11.726H148.703V14.274H153.435V15.772H148.703V18.474H154.233Z" fill="white"/>
</svg>
