<svg width="42" height="48" fill="none" xmlns="http://www.w3.org/2000/svg"><path d="M41.428 15.276l-2.169-2.69c-.498-.619-1.243-.973-2.088-.973-.58 0-1.154.196-1.61.551L18.827 25.158a2.6 2.6 0 00-1.014 2.065c0 .593.206 1.175.58 1.638l.717.89-9.41 6.88A65.014 65.014 0 018.45 24c0-6.094.857-12.152 2.543-18.01l.444-1.541c.09-.314.135-.636.135-.958C11.573 1.565 9.995 0 8.009 0 6.55 0 5.227.91 4.715 2.264l-.145.382a59.176 59.176 0 00-2.476 8.388l-.12.554A58.906 58.906 0 00.65 24c0 4.165.445 8.34 1.324 12.412l.12.554A58.928 58.928 0 003.74 42.99 14.706 14.706 0 000 46.796l1.298.859a13.17 13.17 0 012.974-3.135c.1.278.194.558.298.834l.144.38C5.227 47.09 6.55 48 8.054 48c1.941 0 3.519-1.565 3.519-3.49 0-.323-.046-.646-.135-.96l-.444-1.54c-.059-.205-.109-.412-.166-.618l30.126-22.42A2.597 2.597 0 0042 16.896c0-.587-.204-1.162-.572-1.621zM8.008 46.452a1.968 1.968 0 01-1.833-1.261l-.144-.38a57.655 57.655 0 01-2.412-8.17l-.12-.554c-.363-1.69-.635-3.4-.846-5.12h2.678V29.42h-2.85c-.048-.515-.088-1.032-.123-1.548H5.33v-1.548H2.272a56.743 56.743 0 01-.042-1.549h3.101v-1.548h-3.1c.007-.517.02-1.032.041-1.549h3.06V20.13H2.357c.035-.516.075-1.033.124-1.548H5.33v-1.549H2.653c.211-1.719.483-3.43.848-5.12l.12-.554a57.726 57.726 0 012.41-8.167l.146-.382c.284-.754 1.02-1.26 1.878-1.26 1.08 0 1.957.87 1.957 1.942 0 .18-.025.36-.076.533l-.443 1.54a66.614 66.614 0 000 36.872l.443 1.538c.051.176.076.355.076.535 0 1.072-.878 1.943-2.003 1.943zm32.01-28.72L10.395 39.78c-.123-.492-.232-.987-.343-1.481l11.292-8.256-1.732-2.149a1.07 1.07 0 01.178-1.516l16.73-12.993c.396-.309 1.143-.297 1.52.17l.824 1.023-16.629 12.68.952 1.229 16.653-12.7.369.457c.149.185.23.417.23.654 0 .327-.157.64-.42.836z" fill="#898989"/></svg>