<svg width="112" height="139" fill="none" xmlns="http://www.w3.org/2000/svg"><path fill-rule="evenodd" clip-rule="evenodd" d="M64.217 49.383L55.5 55.029l-8.634-5.592v2.8l.518.335L55.5 57.83l8.717-5.645v-2.802zM77 43.903v-2.8l-6.616 4.284v2.802l1.78-1.153v29.246l-3.782-2.449c0-10.767-.003-21.533 0-32.3l2.673-1.731V37l-7.507 4.862v2.802l2.672-1.731v10.546l-2.536 1.642 2.535 1.642v15.67l-2.44-1.581v2.8c5.695 3.693 7.922 5.135 10.333 6.696L77 82.218v-2.804l-2.674-1.731V45.635L77 43.904zm-19.485 7.225l2.164-1.4L40.028 37v2.802l2.673 1.73c-.004 10.75 0 21.498 0 32.247l-3.865 2.502V47.037l1.861 1.206V45.44L34 41.104v2.801l2.673 1.731c-.004 10.682 0 21.365 0 32.047L34 79.414v2.802l13.252-8.583v-2.801l-2.388 1.547V42.934l12.652 8.194z" fill="#2B2A29"/><path opacity=".5" d="M101.952 24.07C91.383 8.774 74.634 0 56.002 0 37.369 0 20.62 8.774 10.052 24.07-.466 39.288-2.894 58.554 3.541 75.576c1.722 4.649 4.459 9.165 8.115 13.397l40.66 47.759a4.839 4.839 0 007.37 0l40.648-47.746c3.672-4.256 6.405-8.768 8.112-13.379 6.45-17.053 4.021-36.32-6.495-51.537zm-2.569 48.147c-1.316 3.558-3.466 7.075-6.384 10.459-.008.008-.017.016-.023.026L56.002 126.13 19.005 82.674c-2.918-3.38-5.067-6.897-6.396-10.489-5.323-14.077-3.303-30.007 5.405-42.61C26.749 16.932 40.596 9.681 56.002 9.681c15.405 0 29.25 7.25 37.986 19.894 8.709 12.603 10.731 28.533 5.395 42.642z" fill="#CB1E14"/></svg>