<svg width="24" height="24" fill="none" xmlns="http://www.w3.org/2000/svg"><path opacity=".5" fill-rule="evenodd" clip-rule="evenodd" d="M0 12c0 6.627 5.375 12 12.004 12a11.98 11.98 0 003.12-.424l-.665-1.894c-.787.2-1.607.318-2.455.318-5.516 0-10.003-4.486-10.003-10S6.488 2 12.004 2c2.235 0 4.293.744 5.959 1.989l-2.05 2.049 7.015 1.354L21.573.379l-2.184 2.183A11.919 11.919 0 0012.004 0C5.375 0 0 5.373 0 12zm11 2V6h2v6h5v2h-7zm12.852-.158l-1.998-.159a9.912 9.912 0 01-.454 1.714l1.8.905c.301-.784.52-1.606.652-2.46zm-4.546 7.667l-1.413-1.443a9.946 9.946 0 01-1.555.933l.669 1.899a11.93 11.93 0 002.299-1.389zm.077-2.781c.43-.471.814-.982 1.149-1.528l1.794.903c-.44.742-.956 1.431-1.539 2.058l-1.404-1.433zm2.314-9.087h2.076c.142.714.217 1.453.227 2.208l-2.015-.161a10.162 10.162 0 00-.288-2.047z" fill="#898989"/></svg>