<svg width="48" height="48" fill="none" xmlns="http://www.w3.org/2000/svg"><g opacity=".5" fill="#898989"><path d="M23.916 6.1a.944.944 0 00.944-.945V.945a.944.944 0 10-1.888 0v4.21c0 .522.423.944.944.944zM46.995 32.436l-1.668-1.663a3.13 3.13 0 00-2.227-.92 3.14 3.14 0 00-1.514.386l-3.143-3.14.153-.152a3.277 3.277 0 000-4.627 3.242 3.242 0 00-1.644-.889c.086-.294.13-.603.13-.919 0-.877-.34-1.699-.957-2.313a3.241 3.241 0 00-1.643-.889c.085-.294.13-.603.13-.918 0-.877-.34-1.7-.959-2.315a3.256 3.256 0 00-1.642-.886 3.282 3.282 0 00-.827-3.236 3.278 3.278 0 00-2.665-.934l-6.228-1.18c-.95-.18-2.136-.299-2.885.384a1.692 1.692 0 00-.143.148 3.283 3.283 0 00-3.445.758 3.249 3.249 0 00-.956 2.314c0 .316.044.624.13.92a3.236 3.236 0 00-1.64.886 3.244 3.244 0 00-.96 2.312c0 .316.044.626.13.921a3.244 3.244 0 00-1.643.886 3.251 3.251 0 00-.958 2.316c0 .671.2 1.31.572 1.85a3.254 3.254 0 00-1.258.783 3.277 3.277 0 000 4.63l.153.152-3.143 3.137a3.157 3.157 0 00-3.572.62l-1.669 1.664a3.126 3.126 0 00-.92 2.226c0 .844.327 1.635.92 2.227l2.083 2.08a.944.944 0 101.335-1.335l-2.083-2.08a1.25 1.25 0 01-.367-.892c0-.338.13-.654.366-.89l1.67-1.664a1.264 1.264 0 011.54-.189.956.956 0 00.39.334l9.57 9.557a.942.942 0 00.456.46c.202.229.314.521.314.833 0 .339-.13.655-.367.891l-1.667 1.665c-.493.49-1.294.49-1.785.002l-2.083-2.083a.944.944 0 00-1.335 1.335l2.084 2.085c.614.61 1.42.916 2.225.916.806 0 1.613-.306 2.227-.917l1.669-1.667c.593-.593.92-1.384.92-2.227 0-.602-.167-1.176-.478-1.672l3.538-3.533.01-.012c.406-.419 1.534-.34 2.625-.265.775.054 1.64.114 2.484.017l3.874 3.87a3.134 3.134 0 00-.385 1.511c0 .843.327 1.633.92 2.226l1.669 1.667a3.129 3.129 0 002.227.919 3.13 3.13 0 002.226-.92l10.12-10.106c.593-.593.92-1.384.92-2.227 0-.844-.327-1.634-.921-2.228zM21.939 9.697l4.096.775-2.451 2.45c-.38-.181-.9-.521-1.47-1.067-.78-.746-1.338-1.609-1.39-2.146v-.001a.855.855 0 01-.003-.093c.123-.03.45-.064 1.218.082zm-4.786.77a1.393 1.393 0 011.762-.167c.306 1.284 1.401 2.448 1.894 2.92.365.349 1.537 1.397 2.72 1.685.16.23.247.503.247.791a1.374 1.374 0 01-1.384 1.383c-.372 0-.72-.143-.98-.404h-.001v-.001l-4.258-4.25a1.372 1.372 0 01-.403-.979c0-.371.143-.719.403-.978zm-2.467 4.12c.26-.26.607-.404.979-.404s.721.144.983.405l3.428 3.422c.54.54.54 1.42.002 1.96-.261.26-.61.403-.984.403-.373 0-.722-.143-.982-.402L15.51 17.37l-.013-.012-.813-.813a1.374 1.374 0 01-.405-.98c0-.37.144-.717.406-.978zm-2.472 4.12c.26-.26.608-.404.981-.404.37 0 .715.141.974.396l2.61 2.608c.26.26.403.607.403.978s-.143.718-.405.978c-.26.26-.608.403-.98.403-.373 0-.722-.143-.982-.403l-.946-.944v-.001l-1.655-1.652a1.375 1.375 0 01-.405-.98c0-.371.144-.72.405-.98zm-1.645 4.948c.261-.261.61-.405.983-.405.372 0 .721.144.982.404l.947.947c.26.259.404.606.404.977s-.144.718-.406.98c-.26.26-.608.403-.98.403s-.72-.143-.982-.405l-.119-.119-.004-.004-.005-.005-.819-.815a1.387 1.387 0 010-1.958zm19.241 10.73a.944.944 0 00-1.335 0l-.84.838c-.798.799-2.245.698-3.643.601-1.52-.106-3.09-.215-4.106.829l-3.478 3.473-8.696-8.683 3.077-3.073a3.259 3.259 0 001.71.48c.878 0 1.7-.34 2.315-.956.619-.616.96-1.439.96-2.316l-.001-.024h.024c.876 0 1.698-.339 2.314-.953.619-.616.96-1.439.96-2.316l-.001-.024h.025a3.262 3.262 0 003.273-3.294h.025c.877 0 1.7-.34 2.316-.956a3.248 3.248 0 00.956-2.315c0-.613-.167-1.199-.477-1.706l2.697-2.697a1.386 1.386 0 01.792-.39c.417-.058.855.07 1.173.388.54.541.54 1.421.002 1.96l-.821.818-.008.008-.947.945a.944.944 0 101.335 1.336l.824-.824h.001l.125-.125a1.39 1.39 0 011.959.005c.26.26.404.606.404.978 0 .37-.144.718-.406.979l-.826.828-.947.942a.944.944 0 001.333 1.338l.95-.946c.26-.26.608-.404.98-.404.373 0 .721.144.983.406.26.259.403.606.403.977 0 .372-.143.719-.405.98l-1.647 1.647a.944.944 0 001.335 1.335l.808-.808.014-.012c.26-.26.608-.404.98-.404.373 0 .72.143.981.405.54.538.54 1.417 0 1.957l-.82.82h-.001l-.001.001-1.303 1.301a.944.944 0 001.335 1.336l.637-.636 3.054 3.05-8.696 8.686-3.116-3.112c.218-.14.425-.304.62-.5l.84-.838a.944.944 0 00.001-1.335zm15.851 1.17l-10.12 10.107a1.253 1.253 0 01-.892.366c-.338 0-.655-.13-.892-.367l-1.668-1.666a1.248 1.248 0 01-.367-.89c0-.337.13-.653.367-.89l10.12-10.106c.236-.237.553-.367.891-.367.34 0 .656.13.893.367l1.668 1.663c.237.237.367.553.367.891 0 .339-.13.655-.367.891zM11.38 5.303a.941.941 0 001.334-.001.944.944 0 00-.001-1.335L9.273.533A.944.944 0 107.939 1.87l3.44 3.433zM35.786 5.58a.942.942 0 00.668-.277l3.438-3.434A.944.944 0 1038.556.533l-3.438 3.434a.944.944 0 00.667 1.612z"/><path d="M5.89 40.613a.944.944 0 00.01 1.335l.003.003a.943.943 0 001.334-.013.946.946 0 00-1.348-1.325zM32.12 33.025a.943.943 0 00.843-1.37.944.944 0 00-1.268-.418l-.005.003a.944.944 0 00.43 1.785z"/></g></svg>