<svg width="127" height="31" viewBox="0 0 127 31" fill="none" xmlns="http://www.w3.org/2000/svg">
<path d="M64.3102 11.1152C61.6982 11.1152 59.6303 13.0742 59.6303 15.7952C59.6303 18.4072 61.6982 20.4751 64.3102 20.4751C66.9223 20.4751 68.9902 18.5161 68.9902 15.7952C68.9902 12.9654 66.9223 11.1152 64.3102 11.1152ZM64.3102 18.5161C62.8954 18.5161 61.6982 17.3189 61.6982 15.6863C61.6982 14.0538 62.8954 12.8566 64.3102 12.8566C65.7251 12.8566 66.9223 13.9449 66.9223 15.6863C66.9223 17.3189 65.7251 18.5161 64.3102 18.5161ZM54.1885 11.1152C51.5764 11.1152 49.5085 13.0742 49.5085 15.7952C49.5085 18.4072 51.5764 20.4751 54.1885 20.4751C56.8005 20.4751 58.8684 18.5161 58.8684 15.7952C58.8684 12.9654 56.8005 11.1152 54.1885 11.1152ZM54.1885 18.5161C52.7736 18.5161 51.5764 17.3189 51.5764 15.6863C51.5764 14.0538 52.7736 12.8566 54.1885 12.8566C55.6033 12.8566 56.8005 13.9449 56.8005 15.6863C56.8005 17.3189 55.6033 18.5161 54.1885 18.5161ZM42.1076 12.5301V14.4891H46.7876C46.6788 15.5775 46.2434 16.4482 45.6992 16.9924C45.0462 17.6454 43.9578 18.4072 42.1076 18.4072C39.169 18.4072 36.9923 16.1217 36.9923 13.1831C36.9923 10.2445 39.2779 7.95893 42.1076 7.95893C43.6313 7.95893 44.8285 8.61195 45.6992 9.37381L47.1141 7.95893C45.9169 6.87057 44.3932 5.99988 42.2165 5.99988C38.2984 5.99988 34.9244 9.26497 34.9244 13.1831C34.9244 17.1012 38.2984 20.3663 42.2165 20.3663C44.3932 20.3663 45.9169 19.7133 47.2229 18.2984C48.529 16.9924 48.9643 15.1421 48.9643 13.7273C48.9643 13.2919 48.9643 12.8566 48.8555 12.5301H42.1076ZM91.5193 14.0538C91.084 12.9654 89.9956 11.1152 87.6012 11.1152C85.2068 11.1152 83.2478 12.9654 83.2478 15.7952C83.2478 18.4072 85.2068 20.4751 87.8189 20.4751C89.8868 20.4751 91.1928 19.1691 91.6282 18.4072L90.1045 17.3189C89.5603 18.0807 88.9073 18.6249 87.8189 18.6249C86.7305 18.6249 86.0775 18.1896 85.5333 17.21L91.737 14.598L91.5193 14.0538ZM85.2068 15.5775C85.2068 13.8361 86.6217 12.8566 87.6012 12.8566C88.3631 12.8566 89.1249 13.2919 89.3426 13.8361L85.2068 15.5775ZM80.0915 20.0398H82.1594V6.43522H80.0915V20.0398ZM76.8264 12.0947C76.2822 11.5505 75.4116 11.0064 74.3232 11.0064C72.0376 11.0064 69.8609 13.0742 69.8609 15.6863C69.8609 18.2984 71.9288 20.2574 74.3232 20.2574C75.4116 20.2574 76.2822 19.7133 76.7176 19.1691H76.8264V19.8221C76.8264 21.5635 75.8469 22.543 74.3232 22.543C73.126 22.543 72.2553 21.6723 72.0376 20.9105L70.2962 21.6723C70.8404 22.8695 72.1465 24.3932 74.432 24.3932C76.8264 24.3932 78.7855 22.9784 78.7855 19.6044V11.3329H76.8264V12.0947ZM74.432 18.5161C73.0172 18.5161 71.82 17.3189 71.82 15.6863C71.82 14.0538 73.0172 12.8566 74.432 12.8566C75.8469 12.8566 76.9353 14.0538 76.9353 15.6863C76.9353 17.3189 75.8469 18.5161 74.432 18.5161ZM100.988 6.43522H96.0905V20.0398H98.1584V14.9245H100.988C103.274 14.9245 105.45 13.2919 105.45 10.6798C105.45 8.06777 103.274 6.43522 100.988 6.43522ZM101.097 12.9654H98.1584V8.28544H101.097C102.621 8.28544 103.491 9.59148 103.491 10.571C103.383 11.7682 102.512 12.9654 101.097 12.9654ZM113.613 11.0064C112.089 11.0064 110.566 11.6594 110.022 13.0742L111.872 13.8361C112.307 13.0742 112.96 12.8566 113.722 12.8566C114.81 12.8566 115.79 13.5096 115.899 14.598V14.7068C115.572 14.4891 114.701 14.1626 113.831 14.1626C111.872 14.1626 109.913 15.251 109.913 17.21C109.913 19.0602 111.545 20.2574 113.287 20.2574C114.701 20.2574 115.355 19.6044 115.899 18.9514H116.008V20.0398H117.967V14.8156C117.749 12.4212 115.899 11.0064 113.613 11.0064ZM113.395 18.5161C112.742 18.5161 111.763 18.1896 111.763 17.3189C111.763 16.2305 112.96 15.904 113.94 15.904C114.81 15.904 115.246 16.1217 115.79 16.3393C115.572 17.6454 114.484 18.5161 113.395 18.5161ZM124.823 11.3329L122.538 17.21H122.429L120.034 11.3329H117.858L121.449 19.6044L119.381 24.1756H121.449L127 11.3329H124.823ZM106.539 20.0398H108.607V6.43522H106.539V20.0398Z" fill="white"/>
<path d="M0.435345 1.43414C0.108836 1.76065 0 2.30483 0 2.95785V27.0107C0 27.6637 0.217673 28.2079 0.544182 28.5344L0.653019 28.6432L14.1487 15.1475V14.9299L0.435345 1.43414Z" fill="white"/>
<path d="M20.6547 19.7185L16.1924 15.2562V14.9297L20.6547 10.4674L20.7635 10.5762L26.0965 13.6236C27.6202 14.4943 27.6202 15.9092 26.0965 16.7799L20.6547 19.7185Z" fill="white"/>
<path d="M19.6873 20.6858L15.1161 16.1146L1.5116 29.7192C2.05578 30.2634 2.81764 30.2634 3.79716 29.828L19.6873 20.6858Z" fill="white"/>
<path d="M19.6873 9.39119L3.79716 0.357773C2.81764 -0.186409 2.05578 -0.0775728 1.5116 0.466609L15.1161 13.9623L19.6873 9.39119Z" fill="white"/>
</svg>
