<svg width="20" height="24" fill="none" xmlns="http://www.w3.org/2000/svg"><g opacity=".5" fill="#898989"><path d="M17.675 4.173C15.843 1.52 12.939 0 9.709 0c-3.23 0-6.134 1.521-7.966 4.173C-.081 6.81-.502 10.15.614 13.103c.299.805.773 1.588 1.407 2.322l7.049 8.28a.839.839 0 001.278 0l7.047-8.278c.636-.738 1.11-1.52 1.406-2.32 1.118-2.956.697-6.296-1.126-8.934zm-.445 8.347c-.229.617-.601 1.227-1.107 1.813l-.004.005-6.41 7.529-6.414-7.534c-.506-.586-.879-1.196-1.11-1.819-.922-2.44-.572-5.202.938-7.387 1.514-2.192 3.915-3.449 6.586-3.449 2.67 0 5.07 1.257 6.585 3.45 1.51 2.184 1.86 4.946.936 7.392z"/><path d="M9.709 4.979a4.705 4.705 0 00-4.7 4.7c0 2.59 2.108 4.699 4.7 4.699 2.591 0 4.7-2.108 4.7-4.7 0-2.59-2.11-4.699-4.7-4.699zm0 7.72a3.025 3.025 0 01-3.021-3.02 3.024 3.024 0 013.02-3.022 3.024 3.024 0 013.022 3.021A3.024 3.024 0 019.709 12.7z"/></g></svg>