<svg width="32" height="32" viewBox="0 0 32 32" fill="none" xmlns="http://www.w3.org/2000/svg">
<g opacity="0.5" filter="url(#filter0_d)">
<path d="M20.2118 13.4769C19.6237 13.1288 18.5961 12.2776 17.6386 13.1887C17.4127 13.4187 17.2631 13.5727 17.1664 13.6716C16.2967 13.2596 14.7501 11.7664 14.3491 10.8241C15.77 9.53247 15.1123 9.07178 13.7149 6.41766C13.4761 6.00568 13.089 5.7323 12.6166 5.7323C12.038 5.7323 11.8119 6.0174 10.9853 6.85382C9.9504 7.90082 9.34304 8.22968 9.73232 10.0038C10.8401 15.0538 18.233 20.1116 20.3266 17.8506C22.0366 16.1521 22.3664 15.9911 22.2663 15.223C22.1401 14.4582 21.5532 14.2707 20.2118 13.4769ZM19.2961 16.8937C19.1765 17.0264 18.4606 17.0702 17.273 16.5773C15.021 15.6427 12.6849 13.1902 11.7276 11.3593C11.4228 10.7761 10.7486 9.04688 11.1228 8.70959C11.2759 8.56439 12.3051 7.51337 12.5684 7.25867C13.2694 8.58728 13.6107 9.20837 13.724 9.46143C13.5224 9.77271 12.8777 10.0164 12.8777 10.78C13.1613 12.2717 15.1021 14.0999 16.262 14.7801C17.446 15.4744 17.8249 15.0103 18.2561 14.5682C18.6411 14.1738 18.6082 14.1978 18.6483 14.1938L20.7663 15.4385C20.518 15.6982 19.4675 16.7135 19.2961 16.8937Z" fill="#898989"/>
<path d="M16 0C9.367 0 4 5.36792 4 12C4 18.633 9.36792 24 16 24C22.633 24 28 18.6321 28 12C28 5.367 22.6321 0 16 0ZM16 22.5938C10.1443 22.5938 5.40625 17.8548 5.40625 12C5.40625 6.14429 10.1452 1.40625 16 1.40625C21.8557 1.40625 26.5938 6.1452 26.5938 12C26.5938 17.8557 21.8548 22.5938 16 22.5938Z" fill="#898989"/>
</g>
<defs>
<filter id="filter0_d" x="0" y="0" width="32" height="32" filterUnits="userSpaceOnUse" color-interpolation-filters="sRGB">
<feFlood flood-opacity="0" result="BackgroundImageFix"/>
<feColorMatrix in="SourceAlpha" type="matrix" values="0 0 0 0 0 0 0 0 0 0 0 0 0 0 0 0 0 0 127 0"/>
<feOffset dy="4"/>
<feGaussianBlur stdDeviation="2"/>
<feColorMatrix type="matrix" values="0 0 0 0 0 0 0 0 0 0 0 0 0 0 0 0 0 0 0.25 0"/>
<feBlend mode="normal" in2="BackgroundImageFix" result="effect1_dropShadow"/>
<feBlend mode="normal" in="SourceGraphic" in2="effect1_dropShadow" result="shape"/>
</filter>
</defs>
</svg>
