<svg width="48" height="40" fill="none" xmlns="http://www.w3.org/2000/svg"><path d="M47.462 31.262a56.189 56.189 0 00-5.736-2.325l1.148-4.19a.939.939 0 00-.615-1.143 60.174 60.174 0 00-2.593-.777V7.428a.94.94 0 00-1.293-.869c-.901.37-1.854.558-2.831.558-2.268 0-4.688-3.87-5.988-5.949l-.35-.56a.937.937 0 00-.792-.435h-8.824c-.32 0-.62.164-.791.436a83.28 83.28 0 00-.351.559c-1.3 2.08-3.72 5.949-5.987 5.949-.978 0-1.93-.188-2.832-.558a.936.936 0 00-1.293.87v15.397c-.867.24-1.73.498-2.591.777a.94.94 0 00-.616 1.142l1.148 4.19a56.398 56.398 0 00-5.737 2.326.94.94 0 00.088 1.736c1.189.42 2.37.89 3.523 1.403A59.91 59.91 0 002.6 38.18a.941.941 0 00.88 1.267c.135 0 .27-.03.398-.09a47.874 47.874 0 019.607-3.335.94.94 0 00.709-1.095l-.438-2.245c.252-.054.505-.106.757-.156l8.944 6.35a.936.936 0 001.084 0l8.944-6.35c.253.05.505.102.757.155l-.438 2.246a.94.94 0 00.71 1.095 47.871 47.871 0 019.606 3.335.938.938 0 001.278-1.176 59.901 59.901 0 00-1.547-3.781 47.656 47.656 0 013.522-1.403.939.939 0 00.088-1.736zM10.209 8.722a9.307 9.307 0 002.25.275c3.305 0 5.875-4.11 7.576-6.83l.071-.114h7.788l.072.114c1.7 2.72 4.271 6.83 7.576 6.83a9.29 9.29 0 002.25-.274v13.62a59.49 59.49 0 00-1.785-.402v-6.998a.938.938 0 10-1.875 0v6.638c-1.811-.318-3.63-.55-5.453-.696l-.038-.425 2.565-3.004a.94.94 0 00-.494-1.524l-3.846-.923-2.066-3.375a.936.936 0 00-1.598 0l-2.066 3.375-3.846.923a.939.939 0 00-.494 1.524l2.565 3.005-.038.424a58.797 58.797 0 00-5.454.696V12.53c3.668-.677 6.305-3.883 8.244-6.815h3.775c.865 1.312 2.002 2.884 3.413 4.195.38.353.973.33 1.325-.05a.94.94 0 00-.05-1.327c-1.416-1.316-2.558-2.972-3.394-4.268a.937.937 0 00-.787-.429h-4.79a.937.937 0 00-.787.43c-1.87 2.898-4.466 6.257-7.952 6.5a.938.938 0 00-.872.937v10.238c-.596.125-1.191.259-1.785.402V8.723zM21.042 19.54L19.216 17.4l2.734-.656a.937.937 0 00.581-.422l1.47-2.402 1.47 2.402c.13.212.338.364.58.422l2.734.656-1.826 2.139a.942.942 0 00-.221.694l.047.53a58.242 58.242 0 00-5.569 0l.047-.53a.94.94 0 00-.22-.695zm19.785 5.581l-1.873 6.838a51.133 51.133 0 00-29.907 0c-.242-.885-1.558-5.687-1.872-6.838 11.027-3.392 22.624-3.392 33.652 0zm-15.68 6.495L24 32.442l-1.147-.826c.765-.018 1.53-.018 2.294 0zm-12.964 2.79a49.708 49.708 0 00-6.996 2.319c.334-.805.687-1.603 1.055-2.388a.941.941 0 00-.451-1.25 49.274 49.274 0 00-2.39-1.045c1.11-.468 2.237-.9 3.371-1.29l.724 2.643a.939.939 0 001.193.645 50.401 50.401 0 013.24-.933l.253 1.298zM24 36.96l-6.865-4.875c.908-.128 1.818-.23 2.73-.308l3.588 2.585a.938.938 0 001.094 0l3.589-2.585c.911.077 1.822.18 2.73.308L24 36.96zm18.21-3.873a.937.937 0 00-.452 1.25c.368.785.721 1.583 1.055 2.388a49.704 49.704 0 00-6.995-2.32l.253-1.299c1.086.274 2.167.586 3.242.934a.936.936 0 001.193-.645l.723-2.643a54.46 54.46 0 013.37 1.29 49.26 49.26 0 00-2.39 1.045z" fill="#898989"/></svg>