<svg width="614" height="614" viewBox="0 0 614 614" fill="none" xmlns="http://www.w3.org/2000/svg">
<path d="M171.976 424.39L135.893 448.023L125.445 432.069L136.149 415.936L121.263 425.685L111.6 410.933L147.684 387.299L157.681 402.563L145.363 420.791L162.337 409.674L171.976 424.39ZM147.23 384.504L107.21 400.595L95.3738 371.155L104.491 367.49L109.841 380.797L116.15 378.26L111.394 366.431L120.512 362.765L125.268 374.594L131.626 372.038L126.276 358.731L135.393 355.065L147.23 384.504ZM86.9709 319.23L106.371 314.126L86.4067 312.552L84.9293 295.076L128.678 300.53L130.179 318.288L112.287 323.576L130.812 325.778L132.312 343.537L90.0963 356.211L88.6193 338.735L108.036 333.833L88.0554 332.066L86.9709 319.23ZM134.715 266.875L115.758 266.656L133.488 271.43L128.933 288.349L87.2825 277.134L93.0163 255.839L111.176 254.833L95.9745 244.853L101.72 223.515L143.37 234.731L138.805 251.683L121.075 246.909L137.588 256.205L134.715 266.875ZM139.741 205.795L141.369 203.159L128.07 196.774L139.741 205.795ZM145.441 232.449L113.072 202.776L126.756 180.624L167.78 196.288L158.525 211.269L150.003 207.275L147.258 211.718L154.673 217.505L145.441 232.449ZM169.76 194.298L139.509 163.551L153.103 150.177L171.023 157.509L158.543 144.824L171.114 132.456L201.365 163.203L188.358 176L168.068 167.496L182.3 181.961L169.76 194.298ZM214.651 118.582L217.191 124.138L218.946 123.336C219.775 122.956 220.275 122.475 220.43 121.897C220.593 121.317 220.438 120.531 219.982 119.533C219.496 118.469 219 117.811 218.494 117.555C217.988 117.299 217.291 117.374 216.406 117.779L214.651 118.582ZM224.39 139.887L226.145 139.085C227.031 138.68 227.543 138.203 227.681 137.653C227.819 137.104 227.649 136.305 227.163 135.242L226.427 133.632C225.956 132.601 225.467 131.958 224.954 131.687C224.44 131.416 223.741 131.482 222.855 131.887L221.1 132.689L224.39 139.887ZM212.563 156.158L194.631 116.929L220.437 105.132C222.297 104.282 223.973 103.73 225.446 103.485C226.929 103.235 228.25 103.293 229.411 103.658C230.574 104.032 231.62 104.722 232.543 105.741C233.474 106.755 234.315 108.085 235.066 109.727C236.255 112.328 236.66 114.557 236.271 116.409C235.889 118.258 234.632 120.02 232.513 121.69C235.082 121.177 237.273 121.519 239.094 122.711C240.914 123.904 242.585 126.177 244.117 129.527C245.81 133.231 246.221 136.197 245.359 138.421C244.498 140.645 242.162 142.628 238.37 144.361L212.563 156.158ZM264.975 116.353L268.001 115.684L263.311 101.696L264.975 116.353ZM249.832 139.017L248.554 95.1232L273.977 89.4991L291.333 129.836L274.14 133.639L271.066 124.744L265.966 125.872L266.983 135.223L249.832 139.017ZM314.604 97.2682L312.231 97.2354L312.112 105.84L314.405 105.872C315.281 105.884 315.913 105.662 316.3 105.208C316.696 104.753 316.893 103.95 316.908 102.825L316.942 100.426C316.957 99.2932 316.783 98.485 316.418 98.0014C316.052 97.5182 315.454 97.28 314.604 97.2682ZM311.941 118.109L311.767 130.636L294.16 130.392L294.759 87.2621L323.538 87.662C325.557 87.6901 327.272 87.8905 328.674 88.2643C330.086 88.6383 331.238 89.203 332.122 89.9594C333.015 90.7154 333.656 91.6896 334.047 92.8814C334.438 94.0639 334.63 95.4831 334.608 97.1124L334.491 105.505C334.437 109.4 333.558 112.106 331.873 113.596C331.218 114.207 330.344 114.682 329.267 115.039C332.53 117.298 334.121 122.606 334.014 130.945L316.406 130.701C316.505 122.344 315.013 118.144 311.941 118.109ZM362.085 104.623L360.546 110.535L362.414 111.02C363.296 111.25 363.988 111.193 364.472 110.843C364.965 110.496 365.342 109.789 365.618 108.726C365.913 107.595 365.944 106.771 365.713 106.253C365.482 105.735 364.895 105.354 363.952 105.108L362.085 104.623ZM356.184 127.294L358.052 127.779C358.994 128.025 359.692 127.978 360.147 127.639C360.601 127.3 360.973 126.573 361.268 125.442L361.714 123.728C361.999 122.632 362.026 121.825 361.799 121.29C361.573 120.755 360.988 120.365 360.046 120.12L358.178 119.634L356.184 127.294ZM336.74 132.442L347.604 90.6994L375.064 97.8463C377.043 98.3611 378.69 98.991 379.989 99.7312C381.296 100.474 382.284 101.353 382.952 102.369C383.619 103.393 383.994 104.589 384.067 105.961C384.148 107.337 383.961 108.898 383.507 110.646C382.787 113.413 381.693 115.398 380.222 116.588C378.758 117.781 376.67 118.354 373.974 118.311C376.29 119.536 377.772 121.184 378.431 123.258C379.09 125.332 378.951 128.15 378.023 131.715C376.998 135.656 375.444 138.215 373.371 139.396C371.298 140.576 368.236 140.639 364.2 139.589L336.74 132.442ZM377.428 144.469L397.981 106.547L425.877 121.666L421.195 130.305L408.585 123.471L405.345 129.449L416.554 135.524L411.872 144.164L400.663 138.089L397.398 144.113L410.008 150.948L405.325 159.587L377.428 144.469ZM444.222 148.15L442.395 146.636L436.904 153.263L438.67 154.726C439.345 155.285 439.976 155.508 440.562 155.397C441.156 155.291 441.813 154.789 442.531 153.923L444.061 152.076C444.784 151.203 445.155 150.464 445.174 149.859C445.193 149.253 444.876 148.692 444.222 148.15ZM429.075 162.711L421.082 172.357L407.523 161.123L435.043 127.909L457.206 146.273C458.76 147.56 459.97 148.792 460.828 149.963C461.693 151.14 462.236 152.302 462.45 153.446C462.67 154.595 462.559 155.756 462.116 156.929C461.678 158.096 460.938 159.322 459.899 160.576L454.544 167.039C452.058 170.038 449.676 171.595 447.429 171.698C446.536 171.763 445.557 171.585 444.495 171.188C445.619 174.993 443.529 180.125 438.214 186.553L424.655 175.317C429.974 168.871 431.446 164.664 429.075 162.711ZM446.282 198.146C444.099 195.169 442.979 192.53 442.948 190.221C442.91 187.917 444.163 185.871 446.708 184.085L452.793 179.599L463.615 194.279L461.256 196.018C459.653 197.2 459.29 198.38 460.163 199.563C460.624 200.19 461.16 200.499 461.775 200.497C462.389 200.495 463.169 200.151 464.11 199.457C464.63 199.074 465.044 198.725 465.344 198.416C465.644 198.107 465.859 197.772 465.983 197.417C466.113 197.057 466.156 196.652 466.099 196.187C466.055 195.725 465.927 195.148 465.728 194.459L462.079 181.795C461.232 178.855 460.999 176.63 461.385 175.124C461.803 173.573 462.863 172.176 464.545 170.936L468.158 168.273C470.225 166.75 472.343 166.354 474.518 167.082C476.694 167.81 478.877 169.655 481.068 172.626L491.957 187.399C494.153 190.379 495.274 193.017 495.32 195.304C495.372 197.597 494.363 199.496 492.296 201.019L488.32 203.951L477.572 189.37L477.978 189.07C479.503 187.946 479.809 186.764 478.89 185.517C478.511 185.004 478.045 184.699 477.513 184.618C476.975 184.531 476.46 184.668 475.968 185.031C475.719 185.215 475.514 185.399 475.385 185.581C475.243 185.763 475.162 186.01 475.122 186.315C475.095 186.621 475.111 187.016 475.18 187.482C475.236 187.947 475.38 188.544 475.584 189.284L479.645 204.164C479.882 205.111 479.996 205.983 479.99 206.78C479.971 207.575 479.812 208.33 479.498 209.067C479.179 209.798 478.689 210.522 478.019 211.225C477.348 211.94 476.49 212.671 475.435 213.448L471.708 216.195C468.735 218.31 466.138 219.069 463.935 218.482C461.732 217.896 459.481 216.035 457.167 212.912L446.282 198.146ZM464.698 224.76L504.928 209.201L511.238 225.517L497.621 230.783L498.95 234.218L512.566 228.952L518.876 245.269L478.647 260.827L472.337 244.511L489.776 237.766L488.448 234.331L471.008 241.076L464.698 224.76ZM512.157 277.311L494.932 279.559C493.843 279.692 493.084 279.97 492.655 280.374C492.227 280.786 492.062 281.379 492.165 282.169C492.268 282.959 492.579 283.499 493.099 283.789C493.618 284.078 494.424 284.161 495.513 284.028L512.737 281.771C514.809 281.501 515.748 280.621 515.553 279.119C515.45 278.329 515.129 277.79 514.593 277.511C514.057 277.233 513.245 277.169 512.157 277.311ZM481.203 274.078C480.948 272.12 480.908 270.438 481.101 269.038C481.293 267.629 481.754 266.444 482.47 265.494C483.186 264.544 484.168 263.791 485.418 263.245C486.667 262.689 488.224 262.3 490.085 262.057L513.474 259.016C516.678 258.599 519.108 259.158 520.759 260.666C522.419 262.173 523.492 264.793 523.976 268.515L526.356 286.811C526.616 288.813 526.671 290.538 526.519 291.986C526.377 293.433 525.991 294.653 525.371 295.644C524.75 296.636 523.887 297.418 522.773 297.982C521.669 298.554 520.308 298.936 518.692 299.138L495.303 302.179C491.51 302.673 488.744 302.202 486.985 300.761C486.101 300.073 485.376 299.024 484.817 297.615C484.259 296.205 483.854 294.463 483.583 292.374L481.203 274.078ZM516.131 330.419L516.435 328.066L504.423 326.516L504.129 328.79C504.017 329.659 504.165 330.312 504.582 330.75C504.989 331.195 505.755 331.481 506.879 331.626L512.727 332.381C513.851 332.526 514.674 332.445 515.195 332.137C515.718 331.829 516.022 331.261 516.131 330.419ZM485.559 306.326L528.338 311.847L524.654 340.392C524.396 342.394 524.001 344.075 523.469 345.425C522.937 346.785 522.244 347.865 521.392 348.657C520.539 349.457 519.498 349.984 518.269 350.236C517.049 350.489 515.618 350.518 514.001 350.309L502.209 348.788C498.337 348.288 495.758 347.107 494.461 345.262C493.157 343.469 492.772 340.501 493.308 336.347L494.738 325.266L483.306 323.791L485.559 306.326ZM493.285 390.337L498.298 378.634L488.492 374.434L483.479 386.136L493.285 390.337ZM459.437 401.332L492.303 429.266L479.953 443.797L461.451 438.088L475.01 449.612L463.589 463.049L430.723 435.115L442.54 421.212L463.505 427.877L448.044 414.736L459.437 401.332ZM432.589 472.42L422.276 458.442C421.632 457.553 421.022 457.024 420.461 456.844C419.891 456.669 419.294 456.813 418.652 457.285C418.011 457.758 417.689 458.293 417.688 458.888C417.686 459.482 418.004 460.227 418.648 461.116L428.969 475.088C430.208 476.77 431.434 477.165 432.653 476.266C433.294 475.794 433.61 475.253 433.594 474.649C433.578 474.045 433.241 473.304 432.589 472.42ZM420.419 443.776C422.008 442.604 423.46 441.754 424.778 441.244C426.103 440.73 427.364 440.559 428.541 440.725C429.72 440.891 430.854 441.386 431.938 442.214C433.029 443.038 434.124 444.21 435.238 445.721L449.231 464.707C451.148 467.309 451.837 469.704 451.317 471.88C450.803 474.062 449.032 476.27 446.01 478.497L431.158 489.444C429.533 490.641 428.051 491.525 426.711 492.095C425.376 492.671 424.122 492.925 422.954 492.862C421.786 492.799 420.684 492.424 419.65 491.723C418.615 491.034 417.621 490.029 416.662 488.712L402.668 469.727C400.399 466.647 399.47 463.999 399.879 461.763C400.052 460.656 400.618 459.513 401.581 458.342C402.543 457.171 403.871 455.972 405.567 454.722L420.419 443.776ZM387.786 501.723L389.999 500.867L386.894 492.841L384.756 493.668C383.938 493.984 383.435 494.426 383.246 494.992C383.049 495.562 383.166 496.381 383.572 497.43L384.437 499.667C384.846 500.724 385.31 501.408 385.83 501.72C386.349 502.032 386.993 502.03 387.786 501.723ZM382.468 481.397L377.949 469.712L394.372 463.36L409.932 503.589L383.088 513.972C381.206 514.7 379.54 515.155 378.099 515.332C376.65 515.513 375.371 515.419 374.268 515.049C373.158 514.68 372.198 514.017 371.39 513.057C370.586 512.106 369.878 510.862 369.29 509.343L366.262 501.514C364.857 497.881 364.66 495.043 365.667 493.031C366.046 492.22 366.679 491.452 367.544 490.719C363.675 489.842 360.215 485.513 357.198 477.738L373.622 471.386C376.653 479.174 379.606 482.513 382.468 481.397ZM354.461 478.196L363.777 520.311L346.662 524.098L337.345 481.982L354.461 478.196ZM334.835 482.968L337.888 525.994L320.535 527.225L318.177 494.003L307.474 494.763L306.778 484.96L334.835 482.968ZM293.004 484.051C296.665 484.533 299.346 485.548 301.035 487.124C302.725 488.69 303.337 491.008 302.868 494.082L301.9 501.58L283.812 499.245L284.188 496.339C284.442 494.363 283.841 493.285 282.383 493.098C281.61 492.998 281.017 493.171 280.594 493.616C280.17 494.062 279.879 494.863 279.729 496.023C279.647 496.663 279.613 497.203 279.628 497.634C279.644 498.064 279.737 498.451 279.908 498.786C280.078 499.129 280.341 499.44 280.716 499.721C281.08 500.008 281.585 500.315 282.221 500.647L293.892 506.768C296.602 508.189 298.37 509.56 299.191 510.88C300.022 512.255 300.298 513.987 300.031 516.059L299.456 520.511C299.128 523.057 297.949 524.86 295.919 525.928C293.888 526.996 291.046 527.299 287.384 526.826L269.183 524.476C265.512 524.002 262.831 522.987 261.148 521.439C259.455 519.891 258.781 517.849 259.11 515.303L259.743 510.403L277.708 512.722L277.643 513.222C277.4 515.101 278.043 516.14 279.58 516.338C280.212 516.42 280.755 516.293 281.181 515.965C281.616 515.637 281.873 515.17 281.951 514.564C281.99 514.257 281.999 513.981 281.956 513.762C281.923 513.534 281.801 513.304 281.609 513.065C281.407 512.834 281.11 512.572 280.726 512.299C280.351 512.018 279.82 511.709 279.144 511.345L265.587 503.989C264.739 503.505 264.03 502.985 263.459 502.429C262.898 501.865 262.462 501.229 262.147 500.492C261.84 499.756 261.656 498.902 261.611 497.932C261.56 496.952 261.624 495.827 261.792 494.527L262.385 489.936C262.913 486.326 264.161 483.924 266.108 482.739C268.055 481.553 270.955 481.213 274.811 481.702L293.004 484.051ZM260.989 479.4L245.416 519.623L229.077 513.298L235.371 497.042L223.703 511.217L206.719 504.642L220.373 488.453L221.921 464.274L238.714 470.776L237.532 491.46L244.651 473.074L260.989 479.4ZM176.727 464.606L186.917 472.237L193.312 463.698L183.122 456.067L176.727 464.606Z" fill="white"/>
</svg>
