<svg width="827" height="800" fill="none" xmlns="http://www.w3.org/2000/svg"><path d="M424.972 94.906L437.34 25.39l30.734 5.468 7.197 30.867 5.103-28.679 28.422 5.057-12.367 69.516-29.408-5.231-7.879-35.141-5.818 32.703-28.352-5.044zm75.295 15.312l25.772-65.736 48.357 18.959-5.872 14.975-21.857-8.569-4.063 10.363 19.43 7.617-5.872 14.978-19.43-7.619-4.094 10.444 21.858 8.569-5.872 14.977-48.357-18.958zm145.413 1.52l-15.704 28.839 24.292-22.012 22.475 17.863-55.621 45.985-22.837-18.152 13.791-27.249-23.423 19.592-22.838-18.153 32.307-64.516 22.474 17.864-15.963 28.632 24.54-21.815 16.508 13.121-.001.001zm8.75 115.657l21.547-22.335-25.595 15.758-15.037-24.423 60.127-37.017 18.926 30.742-19.193 22.759 28.956-6.9 18.965 30.803-60.127 37.017-15.066-24.472 25.595-15.758-29.616 9.23-9.482-15.403v-.001zm67.109 74.573l1.312 4.899 22.538-8.672-23.85 3.773zm-38.149-23.14l71.692-5.236 11.019 41.174-64.722 31.274-7.453-27.845 14.327-5.666-2.21-8.259-15.219 2.333-7.433-27.775h-.001zm18.136 71.805l70.591-1.507.666 31.209-28.856 13.112 29.122-.621.617 28.862-70.592 1.507-.637-29.863 32.912-14.618-33.209.709-.614-28.789v-.001zm39.779 138.491l-9.47-3.213-1.016 2.991c-.479 1.413-.467 2.55.047 3.383.508.846 1.618 1.544 3.32 2.121 1.812.615 3.153.764 4.026.448.873-.316 1.566-1.229 2.078-2.739l1.015-2.991zm-36.314-12.323l-1.015 2.991c-.512 1.509-.518 2.655-.019 3.437s1.642 1.475 3.453 2.091l2.745.931c1.757.597 3.071.736 3.971.43.9-.308 1.607-1.215 2.119-2.725l1.015-2.992-12.269-4.163zm-6.099-32.357l66.861 22.69-14.926 43.985c-1.075 3.17-2.3 5.785-3.662 7.816-1.368 2.047-2.921 3.555-4.658 4.527-1.752.966-3.748 1.437-5.998 1.392-2.254-.03-4.782-.521-7.582-1.471-4.432-1.503-7.542-3.524-9.312-6.068-1.773-2.53-2.46-6.007-2.07-10.405-2.274 3.636-5.142 5.861-8.606 6.691-3.465.828-8.049.267-13.759-1.67-6.313-2.142-10.307-4.982-11.988-8.507-1.682-3.524-1.421-8.532.772-14.996l14.927-43.984h.001zm-11.441 107.124l-2.6 4.355 21.927 10.12-19.327-14.475zm-9.991-43.485l53.716 47.765-21.848 36.597-67.534-24.621 14.776-24.75 14.047 6.326 4.383-7.341-12.279-9.288 14.738-24.688h.001zm-23.004 124.029l2.703-2.79-10.115-9.804-2.613 2.696c-.999 1.03-1.444 2.031-1.336 3.003.097.983.832 2.119 2.154 3.4l2.82 2.733c1.332 1.291 2.491 1.991 3.477 2.099.985.107 1.941-.338 2.91-1.337zm-21.835-26.574l-14.725-14.273 20.062-20.698 50.699 49.143-32.792 33.83c-2.3 2.373-4.464 4.191-6.484 5.441-2.031 1.262-3.997 2-5.89 2.203-1.903.215-3.784-.115-5.643-.988-1.847-.862-3.753-2.226-5.669-4.082l-9.865-9.563c-4.579-4.438-6.815-8.524-6.698-12.205.007-1.465.423-3.041 1.206-4.723-6.353 1.35-14.462-2.716-24.275-12.207l20.063-20.699c9.843 9.502 16.52 12.441 20.011 8.82v.001zm-40.241 74.87l-5.314-8.471-2.676 1.679c-1.264.794-1.973 1.682-2.1 2.652-.14.977.28 2.219 1.235 3.742 1.016 1.621 1.963 2.583 2.839 2.889.876.306 1.99.036 3.341-.812l2.675-1.678v-.001zm-20.378-32.484l-2.676 1.679c-1.35.846-2.078 1.731-2.185 2.653-.106.922.342 2.181 1.358 3.802l1.541 2.455c.985 1.572 1.916 2.51 2.808 2.84.892.331 2.013.072 3.363-.775l2.676-1.679-6.886-10.975h.001zm15.701-28.943l37.522 59.813-39.348 24.683c-2.835 1.779-5.435 3.034-7.775 3.75-2.353.723-4.509.912-6.47.567-1.968-.355-3.814-1.251-5.53-2.706-1.729-1.447-3.379-3.423-4.951-5.927-2.488-3.965-3.624-7.496-3.389-10.585.222-3.083 1.885-6.213 4.964-9.376-4.059 1.382-7.688 1.297-10.897-.247-3.211-1.544-6.412-4.874-9.616-9.981-3.543-5.648-4.847-10.372-3.925-14.166.922-3.795 4.286-7.513 10.068-11.141l39.347-24.684zm-60.013 34.961l22.091 67.062-49.333 16.251-5.033-15.278 22.3-7.346-3.482-10.571-19.822 6.529-5.034-15.279 19.822-6.53-3.509-10.653-22.3 7.345-5.033-15.279 49.333-16.25v-.001zm-79.386 75.425l3.854-.477-1.727-13.981-3.726.461c-1.423.175-2.399.677-2.924 1.5-.54.826-.681 2.173-.455 4l.482 3.897c.227 1.841.691 3.113 1.391 3.815.7.702 1.724.955 3.105.785zm-.336-34.392l-2.515-20.352 28.608-3.536 8.659 70.075-46.76 5.778c-3.279.405-6.105.463-8.463.17-2.373-.291-4.366-.949-5.969-1.978-1.616-1.028-2.875-2.464-3.774-4.309-.898-1.831-1.528-4.09-1.855-6.736l-1.684-13.636c-.782-6.329.039-10.913 2.438-13.706.926-1.137 2.238-2.103 3.903-2.922-5.795-2.934-9.56-11.187-11.248-24.734l28.608-3.535c1.706 13.574 5.063 20.052 10.052 19.421zm-61.529-19.295c5.997.744 10.399 2.372 13.183 4.929 2.787 2.542 3.817 6.331 3.088 11.368l-1.49 12.286-29.637-3.595.577-4.762c.393-3.237-.606-4.994-2.994-5.283-1.266-.154-2.236.137-2.923.872-.688.734-1.154 2.049-1.385 3.949-.127 1.05-.176 1.935-.144 2.639.031.704.188 1.336.472 1.882.283.559.717 1.065 1.334 1.52.6.466 1.431.962 2.476 1.498l19.181 9.874c4.452 2.292 7.365 4.513 8.725 6.664 1.378 2.24 1.852 5.072 1.44 8.467l-.885 7.294c-.507 4.172-2.414 7.139-5.723 8.912-3.31 1.774-7.959 2.304-13.959 1.577l-29.823-3.619c-6.015-.729-10.416-2.357-13.192-4.869-2.789-2.514-3.918-5.848-3.412-10.021l.973-8.028 29.437 3.571-.099.82c-.374 3.079.691 4.771 3.209 5.076 1.036.125 1.923-.087 2.616-.631.708-.543 1.123-1.31 1.243-2.303.061-.503.072-.954-.001-1.313-.057-.372-.26-.747-.578-1.136-.334-.376-.823-.801-1.455-1.242-.617-.456-1.49-.955-2.601-1.542l-22.284-11.872c-1.394-.781-2.561-1.624-3.503-2.527a10.012 10.012 0 01-2.172-3.154c-.512-1.2-.824-2.596-.909-4.183-.098-1.604-.005-3.446.253-5.576l.913-7.523c.819-5.916 2.831-9.861 6.004-11.827 3.172-1.966 7.917-2.558 14.235-1.807l29.809 3.616.001-.001zm-52.378-7.948l-26.641 65.389-26.521-10.805 9.017-22.132-5.582-2.275-9.017 22.132-26.521-10.806 26.642-65.388 26.519 10.805-11.548 28.346 5.582 2.275 11.55-28.346 26.52 10.805zm-115.885-2.48l16.663-23.042c1.065-1.447 1.586-2.662 1.587-3.627-.011-.973-.533-1.835-1.589-2.598-1.056-.766-2.049-1.001-2.979-.707-.927.293-1.93 1.16-2.995 2.607l-16.652 23.05c-2.004 2.77-2.01 4.877-.002 6.331 1.056.765 2.058.989 2.992.663.933-.327 1.921-1.221 2.975-2.677zm38.608-33.24c2.618 1.896 4.667 3.736 6.118 5.538 1.462 1.81 2.355 3.691 2.683 5.611.329 1.919.122 3.934-.631 6.037-.741 2.111-2.024 4.402-3.826 6.892l-22.64 31.274c-3.102 4.284-6.496 6.55-10.147 6.824-3.659.285-7.984-1.379-12.961-4.982l-24.465-17.71c-2.676-1.937-4.792-3.809-6.347-5.615-1.564-1.795-2.584-3.624-3.067-5.477-.484-1.853-.447-3.758.132-5.718.559-1.958 1.631-4.008 3.206-6.16l22.64-31.273c3.672-5.072 7.339-7.839 11.029-8.315 1.813-.28 3.876.033 6.183.95 2.305.918 4.835 2.392 7.628 4.415l24.465 17.71v-.001zm-106.328-21.661l2.461 3.004 15.335-12.567-2.38-2.904c-.91-1.109-1.853-1.665-2.843-1.661-.986-.015-2.188.576-3.623 1.752l-7.466 6.118c-1.434 1.176-2.261 2.248-2.48 3.215-.221.967.113 1.968.995 3.044l.001-.001zm63.025-9.361l-54.611 44.756-29.864-36.441c-2.095-2.556-3.653-4.914-4.665-7.064-1.021-2.161-1.53-4.198-1.517-6.103.005-1.914.547-3.746 1.626-5.492 1.068-1.738 2.641-3.475 4.705-5.166l15.054-12.338c4.942-4.05 9.245-5.796 12.9-5.269 3.6.459 7.567 3.335 11.913 8.637l11.592 14.146 14.595-11.961 18.271 22.295h.001zm-108.742-85.131l8.311 19.111 16.015-6.964-8.311-19.112-16.015 6.965zm24.912-52.664l-70.178 7.781-3.44-31.027 27.576-15.628-28.951 3.211-3.181-28.693 70.177-7.781 3.291 29.688-31.481 17.488 33.015-3.66 3.172 28.621zM75.124 351.393l28.23 3.411c1.782.231 3.097.098 3.942-.368.847-.482 1.347-1.355 1.504-2.649.157-1.296-.118-2.278-.825-2.949-.706-.669-1.951-1.126-3.733-1.358l-28.23-3.396c-3.396-.412-5.243.604-5.54 3.066-.157 1.294.132 2.278.87 2.937.737.659 1.998 1.089 3.782 1.306zm47.785 17.668c-.39 3.208-1.007 5.892-1.88 8.035-.876 2.156-2.088 3.849-3.608 5.065-1.52 1.217-3.384 2.013-5.587 2.374-2.206.374-4.832.362-7.882-.008l-38.328-4.652c-5.251-.637-8.878-2.507-10.886-5.569-2.023-3.062-2.663-7.651-1.923-13.751l3.639-29.983c.398-3.28 1.009-6.038 1.835-8.273.813-2.238 1.919-4.017 3.306-5.336 1.386-1.321 3.07-2.213 5.066-2.657 1.983-.46 4.297-.515 6.942-.179l38.327 4.65c6.216.755 10.413 2.622 12.618 5.62 1.124 1.45 1.85 3.407 2.164 5.869.314 2.461.251 5.388-.165 8.812l-3.638 29.983zM90.53 265.123l-1.465 3.597 13.046 5.315 1.416-3.476c.542-1.329.58-2.425.117-3.286-.457-.875-1.564-1.654-3.268-2.349l-3.637-1.481c-1.718-.7-3.055-.916-4.009-.647-.955.268-1.675 1.038-2.2 2.327zm30.183 16.49l18.991 7.737-10.875 26.695-65.39-26.639 17.776-43.633c1.247-3.06 2.576-5.555 3.982-7.47 1.412-1.928 2.96-3.347 4.64-4.244 1.685-.91 3.553-1.307 5.603-1.192 2.036.11 4.314.664 6.783 1.669l12.724 5.184c5.906 2.405 9.507 5.359 10.774 8.817.54 1.362.743 2.979.645 4.833 5.39-3.625 14.431-2.886 27.078 2.252l-10.875 26.695c-12.68-5.135-19.972-5.366-21.857-.704h.001zm35.261-29.765l-60.626-36.195 14.709-24.638 60.626 36.194-14.709 24.639zm16.353-28.737l-54.677-44.675 18.019-22.052 42.219 34.496 11.114-13.602 12.457 10.179-29.132 35.654zm45.681-51.04c-4.684 3.82-8.904 5.872-12.677 6.116-3.764.254-7.212-1.621-10.347-5.63l-7.844-9.573 23.092-18.923 3.04 3.711c2.067 2.521 4.027 3.016 5.887 1.49.986-.809 1.446-1.71 1.392-2.714-.055-1.005-.683-2.251-1.896-3.732-.67-.817-1.275-1.464-1.806-1.929-.53-.464-1.095-.788-1.686-.96-.599-.183-1.265-.219-2.02-.088-.752.112-1.684.369-2.794.753l-20.397 7.028c-4.734 1.632-8.353 2.199-10.847 1.694-2.572-.554-4.944-2.17-7.112-4.815l-4.657-5.683c-2.665-3.25-3.488-6.679-2.481-10.297 1.008-3.617 3.84-7.343 8.514-11.173l23.237-19.041c4.687-3.84 8.906-5.894 12.64-6.162 3.745-.277 6.934 1.214 9.597 4.465l5.127 6.255-22.935 18.794-.524-.639c-1.965-2.399-3.924-2.799-5.886-1.192-.807.662-1.266 1.45-1.353 2.327-.099.886.169 1.716.804 2.49.321.392.639.712.949.907.309.217.719.33 1.22.369.503.019 1.147-.042 1.904-.193.755-.13 1.72-.415 2.913-.812l23.984-7.887c1.529-.467 2.944-.727 4.249-.784a10.032 10.032 0 013.78.613c1.22.46 2.445 1.2 3.65 2.236 1.225 1.039 2.493 2.379 3.853 4.038l4.803 5.862c3.707 4.683 5.166 8.866 4.391 12.516-.774 3.651-3.626 7.487-8.537 11.531l-23.227 19.033v-.001zm41.49-32.91l-30.424-63.716 25.881-12.359 12.295 25.75-3.782-29.815 26.902-12.846 3.951 34.441 27.062 28.995-26.601 12.701-23.31-24.634 13.907 29.125-25.882 12.358h.001zm112.237-83.755l-20.532 3.57 2.991 17.205 20.532-3.57-2.991-17.205z" fill="#450E0B" opacity=".5"/></svg>